<svg width="1339" height="261" viewBox="0 -10.02 1339 261" fill="none" xmlns="http://www.w3.org/2000/svg">
<path fill-rule="evenodd" clip-rule="evenodd" d="M860.646 93.2731C857.468 85.5866 842.364 68.7554 835.209 61.3006C862.358 72.0741 895.119 118.3 889.597 116.447C884.076 114.593 864.619 102.881 860.646 93.2731ZM917.063 129.95C917.703 147.656 922.929 155.607 925.462 157.369C930.12 154.515 933.355 144.478 927.941 116.985C923.61 94.9909 908.048 74.421 900.808 66.8854C900.122 69.3085 900.036 75.865 905.185 82.706C911.62 91.2573 916.264 107.818 917.063 129.95ZM913.416 163.394C906.488 165.059 866.44 130.066 854.637 111.841C870.002 119.175 903.269 139.752 913.416 163.394Z" fill="#448E50"/>
<path fill-rule="evenodd" clip-rule="evenodd" d="M872.62 64.3515C867.736 44.1629 867.703 20.1698 868.297 10.6969C877.564 23.0107 889.185 69.9126 885.023 92.6661C882.923 91.6398 877.503 84.5401 872.62 64.3515ZM903.797 26.987C898.226 39.8196 888.597 72.2669 894.649 99.3956C894.839 100.25 895.014 101.133 895.195 102.044L895.195 102.045L895.196 102.048L895.196 102.05L895.196 102.052L895.197 102.053L895.197 102.054L895.197 102.055L895.197 102.055C896.153 106.875 897.262 112.469 901.599 118.637C906.475 114.533 906.881 38.8574 903.797 26.987ZM945.916 149.144C936.895 162.709 935.916 177.352 936.554 182.978C940.702 179.639 946.063 175.026 951.835 166.917C965.645 147.515 967.948 117.649 965.963 104.589C963.04 113.789 954.937 135.578 945.916 149.144ZM956.935 201.885C951.586 218.944 953.892 229.589 956.453 232.512C962.521 228.941 964.148 223.181 967.898 209.905L967.898 209.904C968.242 208.689 968.603 207.411 968.987 206.066C975.622 182.812 973.073 155.073 972.289 146.538C972.242 146.019 972.2 145.571 972.168 145.199C972.234 144.599 972.237 144.194 972.171 144.01C972.058 143.697 972.076 144.135 972.168 145.199C971.441 151.834 963.068 182.33 956.935 201.885ZM827.892 37.3394C835.134 41.6393 852.086 53.3635 861.955 65.8615C864.471 69.0479 866.708 71.8328 868.653 74.2531C876.242 83.6988 879.369 87.5915 877.194 88.1319C872.742 89.2383 833.543 54.3728 827.892 37.3394ZM860.906 103.72C853.673 101.113 832.202 90.4964 822.371 85.5142C842.051 106.181 879.366 135.368 895.622 128.492C895.001 123.53 869.948 106.98 860.906 103.72ZM863.713 136.506C871.046 144.454 887.07 162.905 892.502 173.124C899.291 185.897 926.495 208.866 929.163 206.061C935.351 204.662 920.497 177.903 894.046 155.165C885.763 148.045 870.141 138.735 863.713 136.506ZM943.444 250H934.234C916.492 239.435 881.097 197.745 873.08 182.816C900.359 194.364 942.051 239.652 943.444 250ZM981.836 250H966.469C966.944 247.972 967.511 245.86 968.181 243.669C971.273 233.563 974.459 224.153 977.16 216.176L977.161 216.176L977.161 216.175C981.297 203.96 984.297 195.104 984.075 192.249C983.821 188.973 987.816 221.556 981.836 250ZM909.185 250H880.712C874.349 245.644 869.442 241.411 867.235 237.968C877.539 240.009 893.767 244.156 909.185 250Z" fill="#69A973"/>
<path fill-rule="evenodd" clip-rule="evenodd" d="M876.736 85.3844C878.632 88.3377 882.163 93.7012 885.523 98.4854C884.545 95.8092 883.826 93.1041 883.471 90.3175L885.455 90.065C886.205 95.9534 888.699 101.542 891.946 107.533C893.08 109.625 894.313 111.777 895.589 114.006L895.589 114.006L895.589 114.006L895.589 114.006L895.589 114.006C897.146 116.724 898.767 119.556 900.354 122.53L900.351 122.436C900.263 119.297 900.502 116.189 900.751 114.273L902.734 114.531C902.496 116.36 902.265 119.362 902.351 122.379C902.392 123.831 902.505 125.245 902.712 126.517L902.793 126.51C902.856 127.223 903.158 128.371 903.705 129.948C903.728 129.993 903.751 130.038 903.775 130.082L903.756 130.092C904.083 131.025 904.494 132.103 904.989 133.324C906.342 136.659 908.272 140.944 910.693 146.036C914.291 153.604 918.958 162.928 924.391 173.523C924.254 171.474 924.189 169.172 924.169 166.874C924.129 162.342 924.264 157.715 924.401 154.834L926.398 154.929C926.263 157.78 926.13 162.369 926.169 166.857C926.209 171.38 926.425 175.688 926.957 178.043L926.741 178.092C927.893 180.325 929.074 182.607 930.283 184.936C931.411 187.108 932.525 189.422 933.623 191.858C933.739 190.439 933.983 189.027 934.29 187.695C934.994 184.637 936.061 181.89 936.841 180.274L938.642 181.143C937.923 182.634 936.908 185.241 936.239 188.144C935.565 191.066 935.269 194.173 935.883 196.724L935.743 196.757C942.03 211.872 947.744 230.791 952.56 250H950.498C948.154 240.682 945.603 231.458 942.884 222.726L942.829 222.748C941.313 218.992 937.835 214.717 934.583 211.26C931.821 208.323 929.324 206.079 928.47 205.311L928.469 205.31C928.323 205.179 928.225 205.091 928.182 205.05L929.56 203.601C929.587 203.627 929.659 203.691 929.77 203.791L929.77 203.791L929.773 203.793C930.541 204.482 933.175 206.844 936.04 209.89C937.462 211.402 938.969 213.11 940.354 214.898C936.646 203.853 932.668 193.87 928.508 185.857C927.407 183.736 926.328 181.652 925.273 179.609L925.105 179.69C923.801 176.966 921.156 173.489 918.314 170.204C915.488 166.938 912.536 163.936 910.687 162.177L912.066 160.728C913.932 162.504 916.879 165.499 919.719 168.771C915.505 160.486 911.839 153.104 908.887 146.895C907.415 143.799 906.119 140.99 905.02 138.503L904.886 138.554C903.93 136.073 901.535 133.707 898.771 131.727C896.035 129.766 893.081 128.285 891.217 127.529L891.968 125.675C893.959 126.482 897.054 128.036 899.936 130.101C900.746 130.681 901.551 131.311 902.316 131.984C902.149 131.542 901.995 131.118 901.854 130.714C901.498 129.971 901.22 129.116 901.005 128.194L887.366 115.218L888.744 113.769L898.225 122.789C896.785 120.119 895.327 117.573 893.907 115.095L893.907 115.095L893.907 115.095L893.907 115.095C892.621 112.851 891.367 110.662 890.188 108.486C889.835 107.835 889.49 107.187 889.153 106.539L889.058 106.616C884.909 101.493 877.985 91.0326 875.053 86.4646L876.736 85.3844ZM955.235 250C955.33 248.435 955.461 246.835 955.617 245.243C956.168 239.635 957.024 234.217 957.642 230.95L955.677 230.578C955.049 233.897 954.185 239.374 953.627 245.048C953.465 246.691 953.329 248.358 953.231 250H955.235Z" fill="#26562E"/>
<path fill-rule="evenodd" clip-rule="evenodd" d="M1287.78 142.248L1289.16 143.697L1278.57 153.769L1277.19 152.32L1287.78 142.248Z" fill="#26562E"/>
<path d="M1266.57 154.642C1266.08 168.009 1262.14 174.012 1260.23 175.343C1256.71 173.188 1254.27 165.611 1258.35 144.853C1261.62 128.248 1273.37 112.717 1278.84 107.028C1279.36 108.858 1279.42 113.808 1275.54 118.973C1270.68 125.429 1267.17 137.932 1266.57 154.642Z" fill="#448E50"/>
<path d="M1309.16 126.951C1311.56 121.147 1322.97 108.44 1328.37 102.812C1307.87 110.945 1283.14 145.846 1287.3 144.447C1291.47 143.047 1306.16 134.205 1309.16 126.951Z" fill="#448E50"/>
<path d="M1269.32 179.892C1274.55 181.149 1304.79 154.729 1313.7 140.97C1302.1 146.507 1276.98 162.042 1269.32 179.892Z" fill="#448E50"/>
<path fill-rule="evenodd" clip-rule="evenodd" d="M1300.12 105.115C1303.81 89.8727 1303.83 71.758 1303.39 64.606C1296.39 73.9029 1287.62 109.314 1290.76 126.492C1292.34 125.718 1296.44 120.357 1300.12 105.115ZM1276.58 76.9049C1280.79 86.5934 1288.06 111.091 1283.49 131.573C1283.35 132.221 1283.21 132.89 1283.08 133.581C1282.36 137.22 1281.52 141.443 1278.24 146.1C1274.56 143.002 1274.26 85.867 1276.58 76.9049ZM1244.78 169.133C1251.59 179.375 1252.33 190.43 1251.85 194.678C1248.72 192.157 1244.67 188.674 1240.32 182.552C1229.89 167.903 1228.15 145.354 1229.65 135.495C1231.86 142.44 1237.97 158.891 1244.78 169.133ZM1236.46 208.953C1240.5 221.832 1238.76 229.869 1236.83 232.076C1232.25 229.379 1231.02 225.031 1228.19 215.007L1228.19 215.007C1227.93 214.089 1227.66 213.124 1227.37 212.109C1222.36 194.553 1224.28 173.609 1224.87 167.166C1224.91 166.774 1224.94 166.436 1224.96 166.155C1225.51 171.164 1231.83 194.189 1236.46 208.953ZM1224.96 165.257C1224.91 165.396 1224.91 165.702 1224.96 166.155C1225.03 165.352 1225.05 165.021 1224.96 165.257ZM1333.89 84.7211C1328.42 87.9675 1315.63 96.8193 1308.17 106.255C1306.27 108.661 1304.59 110.763 1303.12 112.591L1303.12 112.591C1297.39 119.722 1295.03 122.661 1296.67 123.069C1300.03 123.905 1329.63 97.5813 1333.89 84.7211ZM1308.97 134.838C1314.43 132.869 1330.64 124.854 1338.06 121.093C1323.2 136.696 1295.03 158.733 1282.76 153.541C1283.23 149.794 1302.14 137.299 1308.97 134.838ZM1306.85 159.591C1301.31 165.592 1289.21 179.523 1285.11 187.238C1279.99 196.882 1259.45 214.223 1257.43 212.106C1252.76 211.05 1263.98 190.846 1283.95 173.679C1290.2 168.303 1301.99 161.275 1306.85 159.591ZM1246.99 246.61C1253.99 252.422 1292.37 208.352 1299.78 194.556C1277.55 203.962 1242.67 243.02 1246.99 246.61ZM1261.49 250C1275.68 243.081 1293.87 238.239 1304.19 236.195C1301.73 240.036 1294.81 245.18 1286.48 250H1261.49ZM1230.19 250C1229.74 247.107 1229.03 243.933 1227.97 240.499C1225.64 232.869 1223.23 225.764 1221.19 219.742C1218.07 210.519 1215.81 203.833 1215.97 201.677C1216.18 199.02 1212.68 227.607 1218.8 250H1230.19Z" fill="#69A973"/>
<path fill-rule="evenodd" clip-rule="evenodd" d="M1287.83 137.124C1287.59 137.599 1287.33 138.076 1287.07 138.554C1286.18 140.206 1285.23 141.863 1284.26 143.56L1284.26 143.56C1282.51 146.611 1280.69 149.789 1278.97 153.3L1278.95 153.288C1278.78 154.025 1278.56 154.713 1278.28 155.312L1278.25 155.397C1278.61 155.103 1278.98 154.823 1279.36 154.557C1281.55 152.985 1283.9 151.803 1285.42 151.187L1286.17 153.041C1284.78 153.605 1282.57 154.715 1280.52 156.182C1278.44 157.67 1276.69 159.421 1275.99 161.226L1275.89 161.188C1275.06 163.071 1274.08 165.197 1272.96 167.54C1270.94 171.802 1268.46 176.795 1265.64 182.366C1267.37 180.462 1269.03 178.784 1270.17 177.702L1271.55 179.151C1270.16 180.474 1267.94 182.734 1265.81 185.193C1263.67 187.672 1261.69 190.276 1260.72 192.301L1260.59 192.24C1259.79 193.785 1258.98 195.36 1258.14 196.965C1255.18 202.682 1252.33 209.733 1249.66 217.539C1250.46 216.577 1251.28 215.662 1252.06 214.828C1253.31 213.501 1254.49 212.352 1255.39 211.512C1255.84 211.093 1256.21 210.749 1256.49 210.5C1256.61 210.388 1256.72 210.294 1256.8 210.222L1256.82 210.199L1256.92 210.108L1256.95 210.081L1256.96 210.071L1256.96 210.071L1258.34 211.52C1258.31 211.553 1258.23 211.622 1258.12 211.725L1258.12 211.725C1257.46 212.313 1255.59 213.993 1253.52 216.198C1251.07 218.807 1248.47 222.006 1247.34 224.796L1247.3 224.78C1244.8 232.813 1242.49 241.401 1240.42 250H1237.62C1237.67 247.508 1237.5 244.598 1237.22 241.712C1236.8 237.486 1236.16 233.402 1235.69 230.942L1237.66 230.57C1238.13 233.082 1238.78 237.224 1239.21 241.516C1239.33 242.773 1239.43 244.05 1239.51 245.309C1243.15 230.787 1247.47 216.47 1252.22 205.023L1252.12 204.998C1252.57 203.127 1252.36 200.824 1251.85 198.633C1251.35 196.46 1250.59 194.509 1250.06 193.399L1251.86 192.53C1252.45 193.765 1253.26 195.856 1253.8 198.184C1253.97 198.917 1254.11 199.684 1254.21 200.464C1254.92 198.919 1255.64 197.442 1256.37 196.043C1257.27 194.305 1258.15 192.6 1259.01 190.933L1258.86 190.898C1259.25 189.149 1259.42 185.922 1259.45 182.504C1259.48 179.121 1259.38 175.661 1259.28 173.512L1261.27 173.417C1261.38 175.596 1261.48 179.094 1261.45 182.522C1261.44 183.835 1261.41 185.156 1261.35 186.396C1265.22 178.824 1268.56 172.145 1271.16 166.681C1272.98 162.839 1274.44 159.609 1275.46 157.097C1275.84 156.159 1276.15 155.338 1276.4 154.633L1276.38 154.627C1276.39 154.611 1276.4 154.595 1276.41 154.579C1276.42 154.568 1276.42 154.556 1276.43 154.545C1276.83 153.373 1277.05 152.533 1277.1 152.023L1277.16 152.028C1277.31 151.082 1277.4 150.02 1277.43 148.919C1277.5 146.655 1277.32 144.402 1277.14 143.032L1279.13 142.774C1279.29 144.04 1279.45 145.986 1279.44 148.037C1280.49 146.107 1281.55 144.255 1282.58 142.471L1282.58 142.47L1282.58 142.47C1283.54 140.79 1284.47 139.17 1285.32 137.601C1287.76 133.084 1289.63 128.897 1290.19 124.498L1292.17 124.75C1291.97 126.308 1291.63 127.831 1291.16 129.335C1293.38 126.127 1295.56 122.806 1296.81 120.862L1298.49 121.943C1296.28 125.39 1291.04 133.299 1287.9 137.179L1287.83 137.124ZM1245.37 250C1246.58 248.737 1247.72 247.627 1248.62 246.808L1247.27 245.333C1246.03 246.466 1244.33 248.134 1242.64 250H1245.37Z" fill="#26562E"/>
<path fill-rule="evenodd" clip-rule="evenodd" d="M135.877 181.628C140.121 196.157 137.154 225.106 91.3295 224.674C98.0048 216.436 122.717 179.623 108.61 171.066C100.259 166.001 94.877 179.749 88.8115 195.244C84.6307 205.924 80.125 217.434 74.0983 224.184C67.8494 223.825 53.6477 221.21 46.8309 213.622C47.7256 212.431 51.0208 209.492 55.3123 205.665C68.2782 194.101 90.3381 174.428 82.7623 170.332C77.1164 167.279 67.6293 179.22 58.5177 190.688C51.3565 199.702 44.4273 208.423 39.7774 209.344C36.4163 207.527 29.2965 203.12 27.706 200.03C26.9475 198.556 36.276 191.988 47.7166 183.934C66.264 170.875 90.3623 153.908 86.0291 148.405C82.2209 143.568 69.5587 154.945 55.5239 167.556C43.7386 178.145 30.9853 189.604 21.694 193.063C16.1553 189.371 6.68771 173.335 6.82996 159.474C13.9309 159.132 27.8393 157.407 26.6653 153.242C25.4913 149.076 12.3215 151.294 5.88328 152.923C4.55782 150.348 2.11518 144.66 2.94839 142.509C3.33699 141.506 10.3555 140.918 18.8745 140.205C33.1876 139.006 51.7365 137.453 50.1934 132.978C47.7318 125.84 4.03732 135.2 2.00172 135.958C-0.0338886 136.715 -1.73761 105.132 3.32772 105.548C4.17194 105.617 5.26864 105.785 6.51764 105.975C12.7627 106.926 22.8158 108.458 24.1572 101.247C25.4449 94.3241 11.2494 91.0934 3.99071 90.3433C5.3952 85.2181 8.30832 74.6987 8.72493 73.6232C9.14153 72.5476 20.4178 70.4215 26.0039 69.4928C27.3294 72.0678 31.4005 77.1493 37.0812 76.8758C37.5645 76.8526 38.0383 76.8328 38.5023 76.8135C44.8556 76.5485 49.357 76.3609 50.8572 68.2963C53.9343 64.8496 60.5144 65.8523 65.059 67.6126C67.4732 79.3708 74.9429 102.364 85.5091 100.272C96.0754 98.1803 90.133 77.84 85.8411 67.9314C92.7684 68.0377 108.536 69.6095 116.186 75.0465C115.557 76.6684 114.632 78.535 113.673 80.4668C110.66 86.5419 107.327 93.2616 111.925 95.0424C114.276 96.4685 119.83 95.3215 123.239 79.3248C125.275 78.567 130.34 78.9829 133.843 83.4321C133.716 95.842 125.304 105.757 118.854 113.359C113.299 119.907 109.199 124.739 113.108 127.97C117.066 131.243 136.162 114.326 140.897 87.7103C147.619 91.3449 161.64 101.621 163.95 113.648C163.509 116.61 157.812 120.584 151.487 124.995C142.206 131.468 131.574 138.883 134.221 145.425C138.891 151.357 152.673 155.355 170.436 123.891C189.37 155.963 176.872 188.23 135.877 181.628ZM170.954 157.881C172.021 159.466 171.947 161.342 170.93 162.675C170.734 162.933 170.518 163.186 170.291 163.435C169.829 163.941 169.321 164.429 168.829 164.9C168.699 165.025 168.57 165.149 168.443 165.272C167.482 166.202 165.681 167.566 162.322 169.299C158.963 171.033 156.729 171.752 155.334 172.038C155.141 172.077 154.946 172.118 154.749 172.159C154.515 172.208 154.279 172.257 154.041 172.306C153.209 172.474 152.358 172.626 151.535 172.686C149.71 172.819 147.802 171.967 146.735 170.381C145.669 168.796 145.743 166.92 146.759 165.587C147.358 164.801 148.496 164.59 149.575 164.39L149.587 164.388C149.767 164.354 149.945 164.321 150.118 164.285C151.513 164 153.748 163.281 157.106 161.547C160.466 159.813 162.266 158.449 163.227 157.519C163.345 157.405 163.463 157.286 163.583 157.166L163.599 157.149C164.321 156.421 165.082 155.654 166.155 155.576C167.979 155.444 169.888 156.295 170.954 157.881ZM127.166 190.623C129.676 191.595 131.011 194.189 130.149 196.417L127.024 204.484C126.161 206.711 123.427 207.729 120.917 206.757C118.407 205.785 117.072 203.191 117.935 200.963L121.059 192.896C121.922 190.669 124.657 189.651 127.166 190.623Z" fill="#8DBB6B"/>
<path fill-rule="evenodd" clip-rule="evenodd" d="M58.8588 79.4281C60.1564 78.9563 61.5908 79.6257 62.0627 80.9232C62.9932 83.4821 64.2288 87.7085 64.9634 92.2083C65.6854 96.6304 65.9889 101.687 64.753 105.704C63.8585 108.611 61.7384 110.765 59.3376 112.362C56.9312 113.962 54.0347 115.144 51.1947 116.048C48.3381 116.957 45.4228 117.619 42.9275 118.133C41.9408 118.336 41.0471 118.511 40.2491 118.667C38.9533 118.921 37.9095 119.126 37.1284 119.321C35.7889 119.656 34.4316 118.841 34.0967 117.502C33.7618 116.162 34.5762 114.805 35.9157 114.47C36.8124 114.246 38.0795 113.997 39.4947 113.719C40.2706 113.567 41.0909 113.406 41.9192 113.236C44.352 112.735 47.0689 112.113 49.6787 111.283C52.3052 110.447 54.7096 109.435 56.5687 108.198C58.4334 106.958 59.5434 105.633 59.9741 104.233C60.8586 101.359 60.7204 97.25 60.0288 93.014C59.3499 88.8558 58.2001 84.9321 57.3637 82.632C56.8918 81.3344 57.5612 79.9 58.8588 79.4281Z" fill="#4EA19B"/>
<path fill-rule="evenodd" clip-rule="evenodd" d="M25.9012 85.3216C26.356 84.016 27.7488 83.4086 29.012 83.965C59.2412 97.2795 85.6492 118.126 95.1874 128.345C96.2656 129.5 97.4479 130.751 98.7167 132.092C108.277 142.203 122.75 157.507 134.604 176.474C135.364 177.689 135.081 179.269 133.974 180.003C132.866 180.737 131.353 180.347 130.594 179.133C119.056 160.672 104.975 145.775 95.3985 135.643C94.1214 134.292 92.9243 133.026 91.8241 131.847C82.8094 122.188 56.9973 101.745 27.3651 88.6931C26.1018 88.1367 25.4464 86.6272 25.9012 85.3216Z" fill="#4EA19B"/>
<path fill-rule="evenodd" clip-rule="evenodd" d="M159.094 153.135C159.938 154.228 159.737 155.798 158.644 156.642C152.274 161.565 144.322 163.469 137.168 163.934C131.751 164.286 126.64 163.823 122.741 163.12C123.067 170.731 122.388 183.889 117.664 194.754C117.114 196.02 115.641 196.601 114.375 196.05C113.109 195.499 112.529 194.027 113.079 192.761C118.137 181.128 118.164 166.204 117.524 160.231C117.437 159.413 117.757 158.604 118.382 158.068C119.006 157.532 119.854 157.337 120.65 157.548C124.162 158.477 130.252 159.373 136.844 158.944C143.45 158.515 150.296 156.774 155.587 152.686C156.68 151.841 158.25 152.043 159.094 153.135Z" fill="#4EA19B"/>
<path fill-rule="evenodd" clip-rule="evenodd" d="M137.549 117.906C138.821 118.444 139.415 119.911 138.877 121.183C136.217 127.47 126.276 139.501 106.784 142.87C107.639 157.407 102.287 164.969 96.7767 172.754C95.0345 175.215 93.2764 177.699 91.6938 180.433C91.002 181.628 89.4725 182.035 88.2776 181.344C87.0827 180.652 86.6748 179.122 87.3666 177.928C89.2968 174.594 91.2698 171.795 93.1144 169.178C98.6514 161.323 103.031 155.11 101.62 140.998C101.485 139.654 102.442 138.447 103.781 138.271C123.021 135.739 132.179 124.184 134.273 119.234C134.811 117.963 136.278 117.368 137.549 117.906Z" fill="#4EA19B"/>
<path fill-rule="evenodd" clip-rule="evenodd" d="M101.457 85.9027C102.838 85.9027 103.957 87.022 103.957 88.4027C103.957 93.1814 103.025 100.748 100.574 107.854C98.3083 114.421 94.5514 121.15 88.492 124.509C86.9775 132.813 81.2167 140.133 74.4528 145.592C67.3064 151.361 58.6212 155.4 51.4703 156.473C50.1049 156.678 48.8319 155.737 48.6271 154.371C48.4223 153.006 49.3632 151.733 50.7286 151.528C56.8298 150.613 64.7097 147.032 71.3122 141.702C77.9355 136.355 82.8559 129.594 83.7367 122.548C83.8445 121.686 84.392 120.942 85.1829 120.582C90.0517 118.369 93.5589 112.857 95.8472 106.223C98.1007 99.6901 98.9573 92.6796 98.9573 88.4027C98.9573 87.022 100.077 85.9027 101.457 85.9027Z" fill="#4EA19B"/>
<path fill-rule="evenodd" clip-rule="evenodd" d="M889.978 250C891.379 247.131 893.467 241.969 892.674 239.92C892.273 238.885 885.033 238.279 876.246 237.543L876.246 237.543C861.481 236.306 842.348 234.704 843.94 230.088C846.479 222.725 891.55 232.381 893.65 233.162C895.75 233.944 897.507 201.365 892.282 201.794C891.412 201.866 890.281 202.038 888.992 202.234L888.992 202.235C882.55 203.216 872.18 204.796 870.796 197.358C869.468 190.217 884.111 186.884 891.598 186.11C890.15 180.824 887.145 169.973 886.715 168.863C886.285 167.754 874.654 165.561 868.892 164.603C867.524 167.259 863.325 172.501 857.465 172.219C856.967 172.195 856.478 172.174 855.999 172.154C849.446 171.881 844.803 171.687 843.255 163.369C840.081 159.813 833.294 160.848 828.606 162.663C826.116 174.792 818.41 198.51 807.511 196.352C796.612 194.194 802.742 173.213 807.169 162.992C800.023 163.102 783.759 164.723 775.868 170.332C776.516 172.005 777.471 173.93 778.46 175.923C781.568 182.189 785.006 189.121 780.263 190.958C777.838 192.429 772.109 191.245 768.592 174.745C766.493 173.963 761.268 174.392 757.654 178.981C757.786 191.782 766.463 202.01 773.115 209.851C778.846 216.606 783.075 221.59 779.043 224.923C774.96 228.299 755.262 210.849 750.379 183.394C743.445 187.144 728.981 197.743 726.598 210.149C727.053 213.205 732.931 217.304 739.454 221.854C749.028 228.531 759.995 236.179 757.265 242.928C752.447 249.047 738.231 253.171 719.909 220.715C713.929 230.843 710.989 240.99 711 250H807.143C806.309 248.36 806.19 246.998 806.975 246.001C809.078 243.33 813.8 245.453 819.956 250H868.808C871.352 247.503 880.439 248.655 886.787 250H889.978Z" fill="#8DBB6B"/>
<path fill-rule="evenodd" clip-rule="evenodd" d="M834.974 174.925C833.677 174.453 832.242 175.123 831.77 176.42C830.812 179.056 829.539 183.411 828.782 188.047C828.132 192.028 827.813 196.501 828.588 200.318C819.976 206.102 812.504 211.846 806.707 216.803C802.228 214.217 798.959 208.853 796.773 202.516C794.445 195.768 793.561 188.528 793.561 184.109C793.561 182.728 792.441 181.609 791.061 181.609C789.68 181.609 788.561 182.728 788.561 184.109C788.561 189.03 789.521 196.826 792.046 204.147C794.166 210.292 797.548 216.559 802.81 220.244C800.739 222.137 798.983 223.863 797.581 225.365C796.468 226.557 795.249 227.847 793.94 229.231L793.94 229.231C792.121 231.155 790.129 233.26 788.015 235.538C768.576 232.755 759.286 221.018 757.139 215.943C756.601 214.671 755.134 214.076 753.862 214.614C752.591 215.152 751.996 216.619 752.534 217.891C755.195 224.181 764.961 236.089 783.998 239.919C781.187 243.026 778.231 246.393 775.223 250H781.559C782.922 248.413 784.27 246.877 785.593 245.393C785.661 247.017 785.814 248.549 786.038 250H791.067C790.551 247.068 790.389 243.737 790.688 239.787C793.031 237.254 795.241 234.915 797.258 232.782L797.258 232.782L797.258 232.781L797.259 232.78L797.26 232.78L797.26 232.779C798.577 231.387 799.81 230.082 800.944 228.867C802.129 227.597 803.595 226.147 805.314 224.556C807.598 231.769 812.885 238.131 818.965 243.039C822.362 245.781 826.095 248.143 829.854 250H844.768C844.403 249.637 843.924 249.383 843.376 249.301C837.066 248.354 828.925 244.653 822.106 239.149C815.734 234.005 810.878 227.585 809.506 220.831C815.03 216.099 822.202 210.567 830.503 204.962C831.579 206.481 833.007 207.73 834.551 208.757C837.025 210.402 840.005 211.619 842.931 212.55C845.874 213.486 848.877 214.169 851.45 214.698C852.466 214.907 853.386 215.088 854.209 215.249C855.548 215.511 856.628 215.723 857.435 215.925C858.775 216.26 860.132 215.445 860.467 214.106C860.802 212.766 859.988 211.409 858.648 211.074C857.725 210.843 856.422 210.587 854.964 210.301L854.964 210.301C854.163 210.144 853.315 209.978 852.459 209.801C849.948 209.284 847.143 208.643 844.447 207.785C841.734 206.922 839.246 205.875 837.32 204.594C836.17 203.829 835.294 203.031 834.677 202.201C844.513 195.828 855.696 189.516 867.461 184.334C868.725 183.777 869.38 182.268 868.925 180.962C868.471 179.657 867.078 179.049 865.815 179.606C854.16 184.739 843.057 190.958 833.208 197.283C833.007 194.773 833.229 191.841 833.717 188.853C834.418 184.558 835.605 180.506 836.469 178.129C836.941 176.832 836.272 175.397 834.974 174.925Z" fill="#4EA19B"/>
<path d="M736.728 44.5355L729.166 82.0037C728.995 82.8505 728.474 84.7723 727.761 85.6859C727.048 86.5994 699.693 79.5797 686.104 75.9556C687.128 71.9763 689.344 62.7302 690.375 55.007C691.319 47.9273 690.096 46.3587 687.474 43.1856C684.851 40.0126 677.913 37.9512 679.83 31.7288C680.745 28.7569 684.666 27.4175 686.699 27.167L731.788 36.268C738.392 37.6012 737.833 42.3351 736.728 44.5355Z" fill="#451D12"/>
<path d="M676.487 74.4887C677.033 71.7818 679.671 70.0304 682.377 70.5768L734.811 81.1603C737.517 81.7066 739.269 84.3439 738.722 87.0507L732.497 117.892C731.951 120.599 729.314 122.35 726.607 121.804L674.174 111.22C671.467 110.674 669.715 108.037 670.262 105.33L676.487 74.4887Z" fill="#062659"/>
<path fill-rule="evenodd" clip-rule="evenodd" d="M681.845 70.4985C680.869 70.4076 679.919 70.6081 679.093 71.0355L673.03 101.076L675.57 101.588L681.845 70.4985ZM736.408 81.7809C737.397 82.3787 738.143 83.3013 738.528 84.3731L732.725 113.125L730.185 112.612L736.408 81.7809ZM730.115 80.2125L732.655 80.7253L726.374 111.843L723.834 111.33L730.115 80.2125ZM723.765 78.9307L726.305 79.4434L720.024 110.561L717.484 110.049L723.765 78.9307ZM717.414 77.6488L719.954 78.1616L713.673 109.279L711.133 108.767L717.414 77.6488ZM711.064 76.367L713.604 76.8797L707.323 107.998L704.782 107.485L711.064 76.367ZM704.713 75.0852L707.253 75.5979L700.972 106.716L698.432 106.203L704.713 75.0852ZM698.362 73.8033L700.903 74.3161L694.622 105.434L692.081 104.921L698.362 73.8033ZM692.012 72.5215L694.552 73.0342L688.271 104.152L685.731 103.639L692.012 72.5215ZM685.661 71.2396L688.202 71.7524L681.921 102.87L679.38 102.357L685.661 71.2396Z" fill="#3A648E"/>
<path fill-rule="evenodd" clip-rule="evenodd" d="M679.463 95.7647C672.139 93.8459 656.221 90.4125 651.136 92.0298C644.779 94.0514 640.322 99.7611 634.938 126.433C634.171 130.237 633.174 135.111 632.033 140.687C625.173 174.213 613.113 233.157 614.411 237.953C615.422 241.683 616.826 246.376 622.173 250H736.801C744.523 219.449 764.07 140.093 761.49 124.879C758.802 109.035 743.499 106.366 733.453 104.614C732.217 104.399 731.06 104.197 730.017 103.986C722.396 102.448 693.139 97.8643 679.463 95.7647Z" fill="#EDBF7C"/>
<path fill-rule="evenodd" clip-rule="evenodd" d="M616.636 219.462C620.268 198.187 627.358 163.534 632.033 140.687C633.174 135.11 634.171 130.237 634.939 126.433C635.571 123.299 636.191 120.455 636.802 117.872C649.101 119.685 678.141 124.225 700.367 129.725C720.848 134.794 746.857 140.318 760.329 143.117C756.357 170.408 744.849 217.892 738.355 243.824C724.596 240.264 699.59 233.995 677.574 229.551C653.504 224.693 628.098 221.025 616.636 219.462Z" fill="#FCF5EC"/>
<path fill-rule="evenodd" clip-rule="evenodd" d="M711.715 172.709C711.549 172.915 711.349 173.152 711.186 173.3C706.449 177.614 700.673 180.463 694.855 182.776C687.201 192.063 680.417 202.156 673.653 212.221C672.817 213.463 671.982 214.706 671.146 215.946C670.625 216.72 670.11 217.496 669.601 218.274C673.762 216.517 677.964 214.869 682.136 213.234C682.353 213.148 682.57 213.063 682.787 212.978C686.737 211.429 690.688 209.928 694.63 208.43C702.939 205.272 711.209 202.13 719.347 198.587C721.256 197.756 721.919 197.451 722.759 197.064C723.333 196.799 723.99 196.496 725.184 195.962C725.233 195.94 725.292 195.913 725.361 195.882C725.723 195.717 726.33 195.441 726.831 195.262C726.987 195.206 727.158 195.15 727.327 195.107C727.473 195.07 727.718 195.015 727.987 195.019C728.117 195.021 729.06 195.042 729.469 195.972C729.654 196.393 729.61 196.78 729.555 197.005C729.5 197.23 729.408 197.407 729.342 197.519C728.927 198.22 728.44 198.903 727.908 199.564C729.498 198.529 731.058 197.478 732.576 196.352C732.823 196.169 733.047 196.014 733.248 195.893C733.419 195.79 733.686 195.641 733.991 195.566C734.141 195.529 734.45 195.472 734.814 195.566C735.26 195.682 735.648 195.992 735.85 196.438C736.015 196.803 735.998 197.135 735.982 197.291C735.963 197.467 735.921 197.615 735.888 197.712C735.775 198.054 735.557 198.432 735.412 198.68C735.329 198.82 735.241 198.966 735.158 199.103L735.149 199.118C735.061 199.263 734.979 199.399 734.904 199.527C734.749 199.792 734.433 200.241 734.104 200.708C734.063 200.766 734.021 200.825 733.98 200.884C733.58 201.454 733.116 202.118 732.688 202.781C732.646 202.845 732.606 202.908 732.566 202.971C732.779 202.853 733 202.728 733.224 202.597C734.106 202.085 734.993 201.523 735.7 201.066C736.005 200.868 736.297 200.677 736.537 200.518C736.816 200.335 737.026 200.197 737.111 200.146C737.821 199.719 738.743 199.948 739.17 200.658C739.597 201.368 739.368 202.289 738.658 202.716C738.659 202.715 738.65 202.721 738.625 202.737C738.602 202.752 738.572 202.771 738.535 202.795C738.492 202.823 738.443 202.855 738.387 202.892C738.343 202.921 738.295 202.953 738.243 202.987C738.007 203.143 737.693 203.349 737.33 203.584C736.606 204.053 735.673 204.643 734.732 205.191C733.807 205.729 732.811 206.262 731.977 206.587C731.576 206.743 731.098 206.897 730.634 206.932C730.258 206.961 729.209 206.944 728.7 205.934C728.399 205.337 728.484 204.73 728.554 204.405C728.635 204.028 728.782 203.65 728.938 203.311C729.125 202.901 729.364 202.463 729.624 202.027C728.715 202.62 727.805 203.202 726.9 203.78C726.195 204.23 725.494 204.679 724.801 205.128C722.725 206.471 720.632 207.762 718.539 209.042C717.189 209.867 717.178 209.875 716.141 210.58C716.06 210.635 715.972 210.695 715.878 210.759C715.879 210.758 715.893 210.753 715.683 210.928C715.669 210.94 715.487 211.097 715.279 211.202C715.228 211.228 715.039 211.324 714.777 211.357C714.51 211.391 713.727 211.385 713.282 210.621C712.975 210.094 713.098 209.591 713.118 209.509L713.119 209.503C713.156 209.35 713.209 209.234 713.233 209.184C713.482 208.659 713.924 208.212 714.268 207.897C714.65 207.547 715.096 207.2 715.518 206.887C715.874 206.624 716.238 206.367 716.555 206.144C716.614 206.102 716.672 206.061 716.728 206.021C717.106 205.754 717.352 205.575 717.479 205.467C718.388 204.695 719.631 203.622 720.49 202.815C720.733 202.587 720.978 202.359 721.224 202.129C721.947 201.455 722.677 200.774 723.376 200.082C722.724 200.379 721.965 200.72 720.545 201.338C712.342 204.908 703.957 208.095 695.611 211.267C691.685 212.759 687.768 214.247 683.882 215.771C683.674 215.853 683.465 215.935 683.257 216.016C677.689 218.2 672.141 220.375 666.721 222.793C664.773 225.917 662.883 229.074 660.981 232.249C659.817 234.194 658.648 236.145 657.46 238.101C657.485 238.06 656.455 239.864 655.3 241.49C654.732 242.29 654.065 243.145 653.424 243.729C653.122 244.005 652.693 244.346 652.179 244.515C651.903 244.606 651.528 244.673 651.111 244.584C650.668 244.49 650.305 244.249 650.043 243.936C649.5 243.287 649.334 242.46 649.275 241.828C649.213 241.152 649.252 240.426 649.323 239.764C649.415 238.896 649.602 237.871 649.726 237.194C649.777 236.916 649.817 236.696 649.836 236.57C650.5 232.027 651.962 227.988 656.131 225C658.806 223.082 661.515 221.855 664.345 220.572L664.489 220.507C664.546 220.481 664.604 220.455 664.661 220.429C665.96 218.36 667.287 216.304 668.659 214.269C669.496 213.027 670.333 211.781 671.172 210.533C676.979 201.892 682.872 193.123 689.352 184.842C688.716 185.071 688.083 185.297 687.456 185.521C687.318 185.57 687.181 185.619 687.044 185.668C685.259 186.306 683.477 186.937 681.697 187.567C678.133 188.829 674.579 190.087 671.033 191.393C670.822 191.47 670.562 191.568 670.267 191.678C668.693 192.267 666.115 193.233 664.622 193.595C663.972 193.753 663.31 193.833 662.698 193.805C662.128 193.779 661.404 193.649 660.819 193.197C660.503 192.953 660.225 192.611 660.073 192.166C659.922 191.725 659.929 191.284 660.019 190.891C660.082 190.617 660.189 190.352 660.327 190.097C660.314 190.103 660.301 190.11 660.289 190.116C658.585 190.957 656.712 191.882 654.795 192.601C652.403 193.497 649.798 194.135 647.115 193.916C644.642 193.714 642.782 192.729 641.555 191.145C641.039 190.478 640.659 189.735 640.389 188.952C638.708 189.903 637.041 190.852 635.414 191.837C634.706 192.266 633.783 192.04 633.354 191.331C632.925 190.622 633.151 189.7 633.86 189.271C635.861 188.059 637.846 186.937 639.799 185.834C639.813 185.826 639.828 185.818 639.842 185.81C639.841 185.791 639.841 185.772 639.84 185.752C639.724 181.958 641.187 177.688 642.932 175.024C646.123 170.149 650.977 166.356 655.767 163.517C655.898 163.439 656.035 163.357 656.176 163.273C657.407 162.54 658.989 161.599 660.637 160.83C662.445 159.987 664.539 159.248 666.506 159.315C667.068 159.334 667.685 159.491 668.187 159.94C668.695 160.395 668.896 160.98 668.954 161.477C669.059 162.374 668.743 163.331 668.456 164.03C667.84 165.526 666.819 167.05 666.55 167.431C663.729 171.43 659.939 175.044 656.476 178.213C652.366 181.975 647.715 184.787 643.067 187.436C643.249 188.175 643.537 188.804 643.927 189.308C644.566 190.133 645.601 190.782 647.359 190.926C649.424 191.094 651.555 190.611 653.741 189.792C655.504 189.131 657.207 188.29 658.901 187.455C659.323 187.247 659.746 187.038 660.168 186.833C664.723 184.621 669.125 182.089 673.333 179.268C673.591 179.058 673.894 178.806 674.22 178.535C674.635 178.188 675.087 177.812 675.526 177.458C675.925 177.136 676.37 176.787 676.678 176.604C676.744 176.564 676.917 176.462 677.133 176.398C677.218 176.372 677.517 176.285 677.893 176.361C678.108 176.404 678.385 176.51 678.633 176.742C678.885 176.98 679.017 177.264 679.073 177.512C679.17 177.936 679.056 178.275 679.025 178.363C678.979 178.499 678.923 178.606 678.888 178.668C678.816 178.795 678.732 178.914 678.662 179.006C678.241 179.565 677.725 179.959 677.288 180.253C677.084 180.39 676.877 180.519 676.696 180.631L676.657 180.655C676.458 180.779 676.291 180.884 676.136 180.991C675.795 181.225 675.453 181.457 675.11 181.688C675.027 181.755 674.95 181.816 674.883 181.869C673.68 182.808 672.393 183.742 671.124 184.662C670.355 185.221 669.592 185.774 668.86 186.32C666.969 187.73 665.184 189.161 663.629 190.741C663.721 190.724 663.816 190.704 663.914 190.68C665.207 190.366 667.532 189.497 669.134 188.898C669.455 188.778 669.747 188.669 669.996 188.577C673.56 187.265 677.145 185.996 680.72 184.73C682.495 184.102 684.268 183.475 686.034 182.843L686.185 182.789C688.477 181.97 690.778 181.147 693.04 180.265C694.279 178.774 695.541 177.305 696.829 175.859C696.999 175.668 697.173 175.473 697.35 175.274C698.967 173.453 700.866 171.315 702.979 169.46C705.32 167.405 708.055 165.576 711.156 164.899C711.76 164.767 712.446 164.707 713.082 164.928C713.846 165.193 714.334 165.792 714.497 166.504C714.633 167.098 714.526 167.68 714.405 168.106C714.276 168.561 714.078 169.02 713.864 169.444C713.436 170.295 712.865 171.161 712.382 171.831C712.138 172.17 711.907 172.472 711.715 172.709ZM699.36 177.528C699.435 177.444 699.511 177.359 699.587 177.273C701.22 175.436 702.994 173.439 704.958 171.715C706.966 169.952 709.063 168.576 711.248 167.966C711.228 168.008 711.207 168.051 711.185 168.095C710.855 168.749 710.384 169.473 709.949 170.077C709.734 170.375 709.536 170.632 709.382 170.824C709.27 170.962 709.202 171.039 709.174 171.071C709.157 171.09 709.155 171.092 709.166 171.082C706.265 173.724 702.926 175.785 699.36 177.528ZM642.898 184.071C646.991 181.709 650.896 179.254 654.45 176C657.914 172.83 661.484 169.408 664.099 165.702C664.329 165.376 665.195 164.069 665.682 162.888C665.768 162.68 665.835 162.491 665.884 162.324C664.743 162.408 663.376 162.863 661.906 163.549C660.403 164.25 658.953 165.112 657.708 165.853C657.568 165.936 657.431 166.018 657.296 166.097C652.705 168.819 648.282 172.329 645.441 176.667C644.229 178.519 643.165 181.377 642.898 184.071ZM661.784 225.097C660.433 225.785 659.15 226.527 657.879 227.438C654.643 229.757 653.409 232.863 652.804 237.004C652.757 237.325 652.695 237.659 652.628 238.016C652.515 238.623 652.39 239.296 652.306 240.081C652.289 240.242 652.275 240.396 652.265 240.545C652.454 240.304 652.652 240.038 652.854 239.753C653.842 238.362 654.715 236.855 654.872 236.584C654.886 236.561 654.894 236.547 654.896 236.543C656.062 234.625 657.217 232.697 658.373 230.766C659.504 228.876 660.637 226.984 661.784 225.097ZM734.861 198.426C734.861 198.426 734.859 198.428 734.854 198.43C734.859 198.427 734.861 198.426 734.861 198.426ZM731.482 205.069C731.481 205.069 731.482 205.061 731.485 205.043C731.484 205.059 731.482 205.068 731.482 205.069ZM713.734 208.645C713.734 208.645 713.741 208.639 713.754 208.63C713.741 208.641 713.734 208.645 713.734 208.645Z" fill="#12396C"/>
<path fill-rule="evenodd" clip-rule="evenodd" d="M1130.1 250C1145.44 233.878 1154.8 211.925 1154.64 187.789C1154.32 138.69 1114.69 99.1486 1066.13 99.4719C1017.57 99.7952 978.474 139.86 978.801 188.96C978.959 212.675 988.285 234.16 1003.36 250H1130.1Z" fill="#275B85"/>
<path fill-rule="evenodd" clip-rule="evenodd" d="M1121.69 250C1138.44 234.685 1148.91 212.476 1148.75 187.828C1148.44 141.984 1111.47 105.064 1066.17 105.366C1020.87 105.667 984.39 143.076 984.696 188.92C984.857 213.175 995.282 234.932 1011.77 250H1121.69Z" fill="#0F3350"/>
<path fill-rule="evenodd" clip-rule="evenodd" d="M1018.82 250H1118.26C1136.99 234.665 1148.9 211.159 1148.73 184.882C1148.56 159.219 1136.9 136.352 1118.72 121.246C1106.92 114.738 1093.37 111.079 1078.98 111.175C1033.68 111.476 997.2 148.885 997.505 194.73C997.647 216.024 1005.7 235.393 1018.82 250Z" fill="#E7AD6C"/>
<path fill-rule="evenodd" clip-rule="evenodd" d="M1043.14 136.001C1042.51 138.08 1040.53 139.322 1038.71 138.776C1036.89 138.23 1035.92 136.103 1036.55 134.024C1037.17 131.946 1039.15 130.703 1040.97 131.249C1042.79 131.795 1043.76 133.923 1043.14 136.001ZM1036.96 145.828C1039.58 150.688 1038.25 156.484 1034 158.774C1029.75 161.064 1024.18 158.981 1021.56 154.121C1018.95 149.261 1020.27 143.465 1024.52 141.175C1028.78 138.885 1034.34 140.968 1036.96 145.828ZM1010.76 175.717C1012.73 177.312 1015.81 176.776 1017.63 174.52C1019.46 172.264 1019.33 169.142 1017.36 167.547C1015.39 165.952 1012.31 166.487 1010.48 168.743C1008.66 170.999 1008.78 174.121 1010.76 175.717ZM1033.42 182.609C1032.75 184.904 1030.59 186.294 1028.58 185.715C1026.57 185.136 1025.48 182.807 1026.14 180.512C1026.81 178.217 1028.97 176.826 1030.98 177.405C1032.99 177.984 1034.08 180.314 1033.42 182.609ZM1021.69 209.274C1025.22 209.562 1028.36 206.518 1028.69 202.475C1029.02 198.432 1026.42 194.922 1022.88 194.634C1019.34 194.346 1016.21 197.389 1015.88 201.432C1015.55 205.475 1018.15 208.986 1021.69 209.274ZM1053.8 201.925C1055 206.912 1052.43 211.803 1048.07 212.85C1043.7 213.897 1039.19 210.703 1038 205.717C1036.8 200.73 1039.37 195.839 1043.73 194.792C1048.1 193.745 1052.6 196.939 1053.8 201.925ZM1042.31 228.561C1044.33 229.522 1046.85 228.439 1047.95 226.141C1049.04 223.842 1048.3 221.2 1046.29 220.239C1044.28 219.277 1041.76 220.361 1040.66 222.659C1039.56 224.957 1040.3 227.6 1042.31 228.561ZM1071.54 236.567C1071.53 240.068 1068.66 242.894 1065.13 242.88C1061.6 242.866 1058.75 240.017 1058.76 236.517C1058.77 233.017 1061.65 230.19 1065.18 230.204C1068.71 230.218 1071.56 233.067 1071.54 236.567ZM1080.19 250H1092.38C1092.39 249.958 1092.4 249.917 1092.41 249.875C1093.44 246.221 1091.57 242.495 1088.23 241.553C1084.89 240.611 1081.35 242.809 1080.32 246.464C1079.98 247.669 1079.95 248.882 1080.19 250Z" fill="#9A5F4E"/>
<path d="M1222.21 154.429C1222.53 202.715 1183.86 242.118 1135.85 242.438C1087.83 242.757 1048.65 203.873 1048.33 155.587C1048.01 107.301 1086.67 67.8986 1134.69 67.579C1182.7 67.2593 1221.88 106.144 1222.21 154.429Z" fill="#0F3F65"/>
<path fill-rule="evenodd" clip-rule="evenodd" d="M1114.22 70.1425C1120.77 68.5124 1127.63 67.6262 1134.68 67.5792C1182.7 67.2595 1221.88 105.916 1222.2 153.921C1222.29 167.013 1219.48 179.448 1214.37 190.617C1200.48 217.171 1173.2 235.312 1141.7 235.522C1095.85 235.827 1058.44 198.033 1058.12 151.107C1057.87 113.62 1081.38 81.6449 1114.22 70.1425Z" fill="#265791"/>
<path d="M1206.45 149.622C1206.71 188.143 1176.57 219.571 1139.14 219.821C1101.7 220.07 1071.15 189.045 1070.89 150.525C1070.63 112.005 1100.77 80.5759 1138.21 80.3267C1175.64 80.0775 1206.2 111.102 1206.45 149.622Z" fill="#FAE8DC"/>
<path fill-rule="evenodd" clip-rule="evenodd" d="M1177.72 120.858C1143.35 119.916 1103.81 128.359 1088.36 132.699C1087.56 132.923 1086.73 132.458 1086.51 131.66C1086.29 130.863 1086.75 130.034 1087.55 129.81C1103.15 125.429 1143.01 116.905 1177.81 117.86C1178.63 117.882 1179.29 118.572 1179.26 119.4C1179.24 120.228 1178.55 120.881 1177.72 120.858Z" fill="#163166"/>
<path fill-rule="evenodd" clip-rule="evenodd" d="M1131.43 140.455C1115.13 141.824 1098.57 144.212 1088.3 145.994C1087.48 146.136 1086.71 145.589 1086.56 144.773C1086.42 143.957 1086.97 143.18 1087.79 143.038C1098.12 141.245 1114.78 138.844 1131.18 137.465C1147.5 136.094 1163.82 135.71 1173.35 138.074C1174.15 138.274 1174.64 139.087 1174.44 139.891C1174.24 140.695 1173.43 141.185 1172.62 140.986C1163.65 138.758 1147.8 139.079 1131.43 140.455Z" fill="#163166"/>
<path fill-rule="evenodd" clip-rule="evenodd" d="M1183.09 174.174C1183.19 175.828 1181.93 177.251 1180.28 177.352C1175.83 177.624 1168.86 178.206 1162.44 179.06C1159.23 179.488 1156.2 179.978 1153.71 180.521C1151.11 181.09 1149.46 181.645 1148.75 182.07C1147.32 182.914 1145.48 182.443 1144.64 181.017C1143.79 179.592 1144.26 177.751 1145.69 176.907C1147.32 175.94 1149.83 175.228 1152.43 174.66C1155.14 174.067 1158.35 173.551 1161.65 173.113C1168.24 172.235 1175.36 171.642 1179.91 171.363C1181.57 171.262 1182.99 172.52 1183.09 174.174Z" fill="#163166"/>
<path d="M402.544 108.923C396.843 106.39 396.21 98.6302 396.605 95.0672V87.5453C396.605 83.5864 391.063 84.3781 387.104 81.211C383.145 78.0439 385.125 74.085 380.77 70.9178C376.415 67.7507 372.852 70.1261 367.31 69.3343C361.767 68.5425 361.371 63 355.829 63C350.286 63 348.703 65.3754 341.973 65.3754C335.242 65.3754 333.659 63.3959 330.492 64.1877C327.325 64.9795 326.137 68.9384 323.366 70.1261C320.594 71.3138 315.844 71.3138 312.677 72.1055C309.509 72.8973 304.363 80.4192 298.029 87.5453C291.694 94.6713 289.715 95.0672 286.944 97.8384C284.173 100.61 286.152 106.944 284.173 110.111C282.193 113.278 280.61 115.258 278.63 120.404C276.651 125.551 280.61 129.114 276.651 134.656C272.692 140.199 277.046 148.512 277.442 153.263C277.838 158.014 281.005 160.785 282.589 164.744C284.173 168.703 282.589 174.641 284.568 178.204C286.548 181.767 293.278 180.58 294.862 183.351C296.445 186.122 294.07 188.101 299.612 194.832C305.155 201.562 308.718 196.811 311.093 199.186C313.468 201.562 315.448 205.521 319.011 205.916C322.574 206.312 325.741 200.77 331.283 203.937C336.826 207.104 344.348 207.5 347.911 207.5C351.474 207.5 351.078 203.541 354.245 203.145C357.412 202.749 357.808 206.708 361.371 206.708C364.934 206.708 366.122 201.562 370.081 199.978C374.04 198.395 376.811 199.978 382.353 195.623C387.896 191.269 384.729 186.122 389.083 181.371C393.438 176.621 394.626 178.996 397.397 174.641C400.168 170.286 397.001 168.703 398.981 163.556C400.96 158.41 410.066 150.492 409.67 147.325C409.274 144.158 406.503 139.803 407.69 133.864C408.878 127.926 409.67 112.09 402.544 108.923Z" fill="#EB9343"/>
<path d="M398.585 134.656C398.585 169.421 373.593 197.603 342.764 197.603C311.935 197.603 282.193 185.726 286.944 134.656C286.944 99.8918 307.134 79.6274 342.764 71.7096C373.593 71.7096 395.813 97.0466 398.585 134.656Z" fill="#F1D1A6"/>
<path fill-rule="evenodd" clip-rule="evenodd" d="M351.078 91.1082C350.286 101.401 343.794 123.175 338.41 124.759C334.451 125.923 307.926 102.985 316.636 89.9205C320.726 85.0378 332.155 76.1435 345.14 79.6273C351.078 81.2206 351.078 85.5657 351.078 91.1082ZM319.407 117.237C324.949 121.196 332.495 127.088 333.659 128.718C333.796 128.91 333.938 129.101 334.078 129.29C335.96 131.828 337.694 134.167 328.116 138.219C317.823 142.574 303.175 145.345 301.196 144.949C300.976 144.905 300.679 144.871 300.325 144.83C297.489 144.505 291.034 143.763 292.09 134.26C292.246 132.857 292.388 131.305 292.539 129.666C293.532 118.821 294.869 104.224 302.779 104.568C304.996 105.061 308.746 108.312 312.598 111.652C314.936 113.681 317.313 115.741 319.407 117.237ZM334.847 139.407C340.864 136.556 340.521 141.914 339.597 144.949C338.674 153.791 335.084 173.612 328.116 182.163C320.967 190.937 313.017 180.771 307.551 173.782C306.359 172.257 305.285 170.883 304.363 169.89C299.216 164.348 297.633 152.867 306.738 151.679C313.426 150.807 321.394 146.518 328.135 142.89C330.572 141.578 332.849 140.353 334.847 139.407ZM341.577 154.451C339.729 163.424 336.351 182.242 337.618 185.726C339.201 190.081 343.556 190.477 348.307 189.685C353.058 188.893 370.477 180.183 371.268 178.6C371.39 178.358 371.612 178.088 371.873 177.772C373.319 176.021 375.936 172.853 368.893 165.14C362.242 157.855 352.398 147.325 348.307 142.97C347.119 141.65 344.506 140.278 343.556 145.345C342.606 150.413 341.841 153.527 341.577 154.451ZM353.058 137.031C349.89 137.982 352.266 141.122 353.849 142.574C354.436 144.629 363.511 152.559 370.262 158.459C372.617 160.517 374.688 162.328 376.019 163.556C380.445 167.641 381.943 165.871 383.283 164.289C383.501 164.031 383.715 163.778 383.937 163.556C384.822 162.671 389.084 151.679 390.271 147.72C391.459 143.762 392.251 134.656 389.084 131.489C386.781 129.186 381.967 130.86 377.533 132.401C375.868 132.98 374.257 133.54 372.852 133.864C370.445 134.42 366.826 134.889 363.249 135.352C359.179 135.879 355.165 136.399 353.058 137.031ZM358.204 91.1082C354.641 100.742 347.357 120.642 346.723 123.175C346.673 123.377 346.615 123.597 346.552 123.833C345.632 127.312 343.814 134.185 353.453 133.073C363.747 131.885 382.905 124.999 387.104 120.8C387.412 120.492 387.703 120.206 387.977 119.936C391.934 116.047 392.339 115.65 387.896 104.173C383.145 91.9 364.538 83.5863 362.559 84.7739C360.579 85.9616 359.665 87.1493 358.204 91.1082Z" fill="#E29748"/>
<path fill-rule="evenodd" clip-rule="evenodd" d="M196.38 34.6161C154.456 45.3009 129.637 89.9312 140.945 134.301C152.253 178.67 195.406 205.977 237.33 195.292C268.211 187.422 289.812 161.134 294.529 130.098C302.805 119.148 312.817 103.319 314.905 93.3527C317.426 81.3107 291.749 66.9661 271.82 55.8326C270.547 55.1218 269.298 54.424 268.082 53.7407C249.013 36.0238 222.459 27.9697 196.38 34.6161Z" fill="#C7D6EB"/>
<path fill-rule="evenodd" clip-rule="evenodd" d="M195.469 45.6016C160.085 56.4052 140.654 95.4702 152.068 132.856C163.483 170.242 201.421 191.791 236.805 180.987C265.42 172.25 283.602 145.032 283.475 115.165C290.45 107.374 298.758 96.9978 297.833 93.6744C297.054 90.8723 289.001 86.9982 280.743 83.0256C278.621 82.0047 276.486 80.9773 274.456 79.9599C258.947 51.2801 226.242 36.206 195.469 45.6016Z" fill="#AEBED3"/>
<path fill-rule="evenodd" clip-rule="evenodd" d="M246.83 160.038C243.153 161.246 233.035 160.196 221.981 146.333C210.928 132.47 225.396 137.218 234.011 141.325C240.218 147.554 251.471 160.017 246.83 160.038ZM234.867 59.8528C240.239 83.9322 232.155 97.188 227.442 100.806L216.104 106.313C216.566 103.38 216.961 100.719 217.323 98.2823L217.323 98.2822L217.325 98.27L217.327 98.2542C217.481 97.2191 217.629 96.2243 217.773 95.2663C206.851 90.6781 201.031 83.7988 201.16 74.4908C211.076 73.7948 216.575 79.5254 219.381 85.8622C221.441 76.0369 224.582 70.3061 234.867 59.8528ZM185.506 113.721C190.665 106.565 197.907 92.1411 188.904 85.6509C181.528 92.9621 176.697 108.422 185.506 113.721ZM210.37 146.381C208.347 155.026 212.64 164.155 215.04 167.639C219.471 170.834 223.426 153.088 219.598 146.719C217.365 143.004 212.393 137.736 210.37 146.381ZM262.662 103.046C260.268 105.88 252.188 110.859 239.021 108.102C225.854 105.344 228.199 101.702 231.017 100.226C235.795 97.0056 248.813 93.0604 262.662 103.046Z" fill="#69AA75"/>
<path d="M184.119 150.501C177.557 153.026 158.567 159.805 148.035 162.735C142.789 164.216 134.346 161.285 131.802 153.137C129.766 146.617 135.227 141.574 138.212 139.867C145.566 137.451 161.567 132.034 170.946 129.535C182.67 126.411 188.022 122.868 200.31 104.364C212.598 85.8607 236.122 90.2264 244.673 109.02C253.224 127.814 241.273 139.518 225.381 144.091C210.774 148.294 207.239 141.604 184.119 150.501Z" fill="#EBF1F4"/>
<path d="M516.831 27.4289C515.966 24.5169 517.627 21.4556 520.539 20.5915L526.998 18.6748C529.91 17.8107 532.971 19.4709 533.835 22.3829L549.055 73.6723C549.919 76.5843 548.259 79.6455 545.347 80.5097L538.888 82.4263C535.976 83.2905 532.914 81.6303 532.05 78.7182L516.831 27.4289Z" fill="#7D442B"/>
<path d="M524.962 137.019C521.36 122.613 528.528 106.526 532.562 100.282C538.267 94.9452 552.747 85.5465 565.026 90.6491C577.305 95.7518 585.687 111.15 588.343 118.211L614.779 212.968C616.155 217.605 616.777 219.703 610.116 222.761C594.572 229.897 562.967 236.753 559.875 237.67C556.783 238.587 553.578 236.175 552.63 233.092C544.65 207.146 528.564 151.424 524.962 137.019Z" fill="#6B3020"/>
<path fill-rule="evenodd" clip-rule="evenodd" d="M578.781 190.851L549.881 93.4611C549.548 92.3385 548.769 91.4698 547.796 90.9905C549.577 90.352 551.421 89.8457 553.292 89.5325C553.822 90.2922 554.241 91.1484 554.519 92.0849L583.418 189.475C584.141 191.911 583.768 194.412 582.586 196.45C584.688 197.512 586.365 199.405 587.088 201.842C588.482 206.537 585.805 211.474 581.109 212.867C576.413 214.26 571.477 211.583 570.084 206.888C569.361 204.451 569.733 201.95 570.915 199.913C568.813 198.85 567.137 196.957 566.414 194.521L537.514 97.1309C537.448 96.9094 537.392 96.6874 537.344 96.4653C538.789 95.4623 540.4 94.4575 542.132 93.5283C541.935 94.2335 541.928 95.0009 542.152 95.7547L571.051 193.145C571.685 195.279 573.928 196.496 576.063 195.862C578.197 195.229 579.414 192.985 578.781 190.851ZM574.721 205.512C574.088 203.377 575.305 201.133 577.439 200.5C579.573 199.867 581.817 201.083 582.451 203.218C583.084 205.352 581.867 207.596 579.733 208.229C577.598 208.863 575.355 207.646 574.721 205.512Z" fill="#7C3E2A"/>
<path fill-rule="evenodd" clip-rule="evenodd" d="M615.6 217.919C615.289 219.641 613.842 221.051 610.116 222.761C597.431 228.584 574.05 234.221 564.197 236.596C561.977 237.132 560.444 237.501 559.875 237.67C557.741 238.303 555.553 237.35 554.09 235.685C559.757 230.136 570.127 224.536 582.63 220.825C595.65 216.962 607.85 216.078 615.6 217.919Z" fill="#7C3E2A"/>
<path fill-rule="evenodd" clip-rule="evenodd" d="M533.987 119.599C534.07 119.053 534.58 118.678 535.126 118.762C539.933 119.495 552.239 119.077 562.432 111.465C562.874 111.134 563.501 111.225 563.831 111.668C564.162 112.11 564.071 112.737 563.629 113.067C552.893 121.085 540.001 121.528 534.824 120.739C534.278 120.655 533.903 120.145 533.987 119.599Z" fill="white"/>
<path d="M575.404 106.071C575.784 107.352 575.054 108.698 573.774 109.078C572.493 109.458 571.147 108.728 570.767 107.447C570.387 106.167 571.117 104.82 572.397 104.44C573.678 104.06 575.024 104.791 575.404 106.071Z" fill="white"/>
<path d="M590.084 155.539C590.464 156.82 589.733 158.166 588.453 158.546C587.172 158.926 585.826 158.196 585.446 156.915C585.066 155.635 585.796 154.288 587.077 153.908C588.357 153.528 589.703 154.258 590.084 155.539Z" fill="white"/>
<path fill-rule="evenodd" clip-rule="evenodd" d="M577.036 117.063C577.559 116.886 578.127 117.166 578.304 117.689C580.564 124.357 585.386 139.26 586.409 145.07C586.504 145.614 586.141 146.132 585.597 146.228C585.053 146.324 584.535 145.961 584.439 145.417C583.449 139.792 578.689 125.055 576.41 118.332C576.233 117.809 576.513 117.241 577.036 117.063Z" fill="white"/>
<path fill-rule="evenodd" clip-rule="evenodd" d="M589.853 166.35C590.353 166.114 590.949 166.328 591.185 166.828C591.947 168.442 593.096 171.028 594.072 173.552C594.559 174.813 595.008 176.07 595.344 177.189C595.673 178.287 595.917 179.326 595.952 180.122C595.976 180.673 595.548 181.14 594.996 181.164C594.444 181.188 593.977 180.76 593.953 180.209C593.93 179.676 593.75 178.836 593.428 177.764C593.113 176.712 592.684 175.507 592.206 174.273C591.252 171.804 590.123 169.263 589.376 167.682C589.14 167.182 589.354 166.586 589.853 166.35Z" fill="white"/>
<path d="M515.335 73.4038C514.707 71.2859 515.914 69.0596 518.032 68.4311L553.647 57.8627C555.765 57.2342 557.991 58.4416 558.62 60.5595L566.894 88.4451C567.523 90.5629 566.315 92.7893 564.198 93.4177L528.583 103.986C526.465 104.615 524.238 103.407 523.61 101.289L515.335 73.4038Z" fill="#E0A362"/>
<path fill-rule="evenodd" clip-rule="evenodd" d="M532.748 64.0643L528.11 65.4405L538.661 100.996L543.298 99.6194L532.748 64.0643ZM551.028 97.3258L555.665 95.9496L545.115 60.3945L540.477 61.7707L551.028 97.3258Z" fill="#A36D3A"/>
</svg>
