<svg width="641" height="377" viewBox="0 0 641 377" fill="none" xmlns="http://www.w3.org/2000/svg">
<path d="M14.3137 104.077C14.3137 89.718 25.9543 78.0775 40.3137 78.0775H587.314C601.673 78.0775 613.314 89.7181 613.314 104.077V346.077C613.314 360.437 601.673 372.077 587.314 372.077H40.3137C25.9543 372.077 14.3137 360.437 14.3137 346.077V104.077Z" fill="#D7E3F9"/>
<path d="M33.4052 17.1987C15.8698 20.6893 25.1289 58.0414 27.9132 81.1866L66.491 73.5072C58.9781 44.9227 55.3246 12.8353 33.4052 17.1987Z" fill="#A6ACDB"/>
<path fill-rule="evenodd" clip-rule="evenodd" d="M36.0087 372.077C26.6716 337.836 10.7763 277.805 7.94049 260.174C4.10486 236.327 -1.34583 189.101 0.302335 176.012C1.9505 162.923 6.91161 157.013 17.8584 149.729C26.2468 144.148 27.3449 140.125 28.5069 135.868C28.8612 134.57 29.2216 133.249 29.7964 131.857L83.2797 121.21C86.899 125.655 93.9673 129.109 106.413 132.101C118.858 135.093 124.285 144.039 127.609 151.581C130.934 159.123 170.145 304.817 169.68 353.767C170.593 358.353 170.809 365.538 168.452 372.077H36.0087Z" fill="#C63155"/>
<path d="M14.056 89.4145C13.4776 86.5091 15.3641 83.685 18.2694 83.1066L77.8901 71.2383C80.7955 70.66 83.6196 72.5464 84.1979 75.4518L88.0377 94.7408C88.616 97.6462 86.7296 100.47 83.8242 101.049L24.2036 112.917C21.2982 113.495 18.4741 111.609 17.8957 108.704L14.056 89.4145Z" fill="#696FC2"/>
<path d="M25.9565 112.568L82.0701 101.398L83.1173 106.658C83.6957 109.564 81.8092 112.388 78.9039 112.966L33.3116 122.042C30.4062 122.62 27.5821 120.734 27.0037 117.828L25.9565 112.568Z" fill="#8089CC"/>
<path d="M33.3118 122.042L78.904 112.966L80.6494 121.734L35.0571 130.81L33.3118 122.042Z" fill="#A81035"/>
<path fill-rule="evenodd" clip-rule="evenodd" d="M136.719 183.494L54.2802 199.905C47.5006 201.254 43.0994 207.844 44.4488 214.623L68.5345 335.618C69.884 342.397 76.4732 346.799 83.2528 345.449L167.423 328.694C167.552 328.668 167.68 328.641 167.806 328.611C162.463 286.552 146.902 222.017 136.719 183.494Z" fill="#F7E8D7"/>
<path d="M68.0439 214.483C67.8511 213.515 68.4799 212.574 69.4484 212.381L132.576 199.814C133.545 199.622 134.486 200.25 134.679 201.219C134.872 202.187 134.243 203.129 133.274 203.321L70.1465 215.888C69.1781 216.081 68.2367 215.452 68.0439 214.483Z" fill="#4F1F19"/>
<path d="M76.8041 221.855C76.6114 220.886 77.2402 219.945 78.2086 219.752L125.554 210.327C126.523 210.135 127.464 210.763 127.657 211.732C127.85 212.7 127.221 213.642 126.253 213.835L78.9068 223.259C77.9383 223.452 76.9969 222.823 76.8041 221.855Z" fill="#4F1F19"/>
<path d="M125.098 327.092C124.906 326.124 125.534 325.183 126.503 324.99L149.299 320.452C150.267 320.259 151.209 320.888 151.402 321.856C151.594 322.825 150.966 323.766 149.997 323.959L127.201 328.497C126.232 328.69 125.291 328.061 125.098 327.092Z" fill="#4F1F19"/>
<path fill-rule="evenodd" clip-rule="evenodd" d="M156.339 114.374C157.145 106.37 157.219 90.9121 157.154 84.1592L159.154 84.1398C159.219 90.8808 159.148 106.444 158.329 114.575L156.339 114.374Z" fill="#26562E"/>
<path fill-rule="evenodd" clip-rule="evenodd" d="M156.435 117.497C155.728 109.058 154.511 101.519 151.261 94.852L153.058 93.9755C156.477 100.988 157.716 108.833 158.428 117.331C158.683 120.381 158.871 123.503 159.063 126.707C159.41 132.496 159.774 138.554 160.585 144.945L158.601 145.197C157.783 138.752 157.41 132.557 157.059 126.718C156.867 123.533 156.682 120.453 156.435 117.497Z" fill="#26562E"/>
<path fill-rule="evenodd" clip-rule="evenodd" d="M163.485 146.48C165.064 142.395 167.211 138.69 168.72 136.511L170.364 137.649C168.933 139.717 166.865 143.282 165.35 147.201C163.823 151.153 162.925 155.294 163.637 158.593L161.681 159.015C160.844 155.13 161.918 150.533 163.485 146.48Z" fill="#26562E"/>
<path fill-rule="evenodd" clip-rule="evenodd" d="M164 121.869L165.947 122.326L160.467 145.725L158.519 145.269L164 121.869Z" fill="#26562E"/>
<path fill-rule="evenodd" clip-rule="evenodd" d="M155.701 139.891C153.728 136.687 151.437 133.717 149.938 131.971L151.455 130.668C153.012 132.48 155.368 135.535 157.404 138.842C159.416 142.11 161.217 145.78 161.493 148.782L159.501 148.965C159.271 146.463 157.699 143.135 155.701 139.891Z" fill="#26562E"/>
<path fill-rule="evenodd" clip-rule="evenodd" d="M161.24 202.292C158.223 197.599 154.957 192.921 152.874 190.05L154.493 188.875C156.594 191.771 159.881 196.481 162.922 201.21C165.944 205.91 168.786 210.724 169.933 213.791L168.059 214.492C166.999 211.656 164.276 207.014 161.24 202.292Z" fill="#26562E"/>
<path fill-rule="evenodd" clip-rule="evenodd" d="M169.251 200.254C169.973 194.859 171.01 189.66 171.747 186.513L173.694 186.969C172.97 190.061 171.946 195.195 171.234 200.519C170.518 205.868 170.133 211.307 170.638 215.058L168.656 215.325C168.113 211.29 168.533 205.624 169.251 200.254Z" fill="#26562E"/>
<path fill-rule="evenodd" clip-rule="evenodd" d="M165.238 231.21C162.553 228.637 159.71 226.61 157.933 225.543L158.963 223.828C160.859 224.967 163.822 227.083 166.622 229.766C169.409 232.437 172.12 235.75 173.391 239.295L171.508 239.97C170.391 236.852 167.937 233.796 165.238 231.21Z" fill="#26562E"/>
<path fill-rule="evenodd" clip-rule="evenodd" d="M182.671 243.302C182.721 243.115 182.753 242.994 182.764 242.946L184.711 243.402C184.695 243.471 184.654 243.626 184.593 243.857C184.231 245.225 183.16 249.274 182.288 254.221C181.264 260.028 180.554 266.874 181.546 271.855L179.584 272.245C178.514 266.87 179.29 259.703 180.318 253.874C181.217 248.78 182.338 244.556 182.671 243.302Z" fill="#26562E"/>
<path fill-rule="evenodd" clip-rule="evenodd" d="M184.004 303.722C179.609 298.267 175.027 293.218 172.157 290.241L173.596 288.853C176.503 291.867 181.124 296.961 185.561 302.467C189.983 307.956 194.281 313.926 196.482 318.676L194.668 319.517C192.576 315.005 188.414 309.196 184.004 303.722Z" fill="#26562E"/>
<path fill-rule="evenodd" clip-rule="evenodd" d="M198.41 315.621C199.042 309.84 200.274 303.909 201.217 300.204L203.155 300.697C202.229 304.333 201.018 310.171 200.398 315.839C200.088 318.674 199.928 321.443 200.02 323.863C200.112 326.306 200.459 328.291 201.093 329.621L199.287 330.481C198.477 328.78 198.117 326.467 198.021 323.939C197.924 321.387 198.094 318.512 198.41 315.621Z" fill="#26562E"/>
<path fill-rule="evenodd" clip-rule="evenodd" d="M202.553 354.764C199.65 352.657 196.909 350.479 195.266 349.113L196.545 347.576C198.158 348.917 200.865 351.067 203.728 353.145C206.607 355.235 209.584 357.208 211.756 358.233L210.902 360.042C208.548 358.93 205.441 356.86 202.553 354.764Z" fill="#26562E"/>
<path fill-rule="evenodd" clip-rule="evenodd" d="M206.876 336.941C208.25 332.674 210.167 328.163 211.516 325.308L213.324 326.162C212.001 328.964 210.12 333.391 208.779 337.554C208.108 339.637 207.582 341.625 207.324 343.294C207.057 345.024 207.114 346.202 207.396 346.815L205.579 347.651C205.028 346.453 205.076 344.746 205.348 342.989C205.629 341.172 206.189 339.072 206.876 336.941Z" fill="#26562E"/>
<path d="M152.931 259.744C170.099 273.817 174.951 286.442 174.28 291.222C164.748 291.682 158.937 285.833 143.261 272.289C119.158 251.463 102.353 218.357 98.5229 211.244C98.0463 210.666 97.7673 210.248 97.7111 210.011C97.6154 209.609 97.8944 210.077 98.5229 211.244C103.795 217.639 133.25 243.611 152.931 259.744Z" fill="#69A973"/>
<path d="M128.472 197.47C147.075 205.417 158.06 219.957 161.227 226.234C154.646 225.59 145.938 224.448 134.425 219.956C106.874 209.208 84.1518 179.76 77.3228 164.846C86.6212 172.41 109.869 189.522 128.472 197.47Z" fill="#69A973"/>
<path d="M145.369 157.896C156.758 176.719 156.743 188.533 155.312 192.088C148.532 192.295 138.341 184.074 125.247 151.837C114.772 126.047 116.931 94.0914 119.32 81.3372C121.682 83.3864 126.234 90.137 125.545 100.746C124.683 114.008 131.134 134.367 145.369 157.896Z" fill="#448E50"/>
<path d="M147.848 110.906C135.665 78.6133 103.577 51.4715 89.0554 41.9372C93.9341 56.3636 145.871 134.677 153.728 135.62C154.092 124.486 150.262 117.306 147.848 110.906Z" fill="#69A973"/>
<path d="M146.869 59.5165C138.198 35.2263 121.899 10.2866 114.834 0.853104C113.592 19.9495 133.451 76.5688 153.263 97.3649C154.745 94.8697 155.541 83.8068 146.869 59.5165Z" fill="#69A973"/>
<path d="M178.992 81.4009C177.06 71.2549 181.288 43.4936 183.644 30.8812C162.783 60.5511 160.228 130.859 164.701 125.175C169.174 119.491 181.407 94.0835 178.992 81.4009Z" fill="#448E50"/>
<path d="M158.973 53.8247C160.714 34.1273 170.337 10.412 174.931 1.01646C180.658 22.5526 163.684 85.4448 158.307 87.3268C155.008 88.4816 156.797 78.4464 158.973 53.8247Z" fill="#69A973"/>
<path d="M185.834 92.4276C191.57 84.7956 206.641 59.1548 213.459 47.2884C207.09 82.1475 188.207 137.861 166.644 141.786C163.912 136.21 178.663 101.967 185.834 92.4276Z" fill="#69A973"/>
<path d="M200.267 186.012C198.951 171.702 203.032 141.632 205.237 128.386C200.08 135.077 190.193 155.38 186.438 168.412C174.446 210.032 177.237 247.934 184.616 245.175C189.295 246.271 201.912 203.899 200.267 186.012Z" fill="#69A973"/>
<path d="M201.362 302.052C216.226 303.738 229.283 208.515 227.035 182.857C204.951 215.831 192.181 301.011 201.362 302.052Z" fill="#69A973"/>
<path d="M270.649 236.154C251.812 254.63 213.668 298.562 211.796 326.486C228.388 330.372 270.872 258.196 270.649 236.154Z" fill="#69A973"/>
<path d="M171.923 190.144C180.252 187.158 198.021 123.555 197.873 96.5935C186.908 114.669 166.367 158.685 171.923 190.144Z" fill="#448E50"/>
<path d="M169.696 310.792C190.13 327.784 196.401 343.674 196.982 349.494C154.04 341.232 115.354 263.06 118.186 268.211C121.019 273.362 144.154 289.551 169.696 310.792Z" fill="#69A973"/>
<path fill-rule="evenodd" clip-rule="evenodd" d="M171.302 223.771C169.128 202.392 167.066 183.869 165.156 169.96C164.201 163.006 163.283 157.193 162.405 152.746C161.537 148.352 160.686 145.156 159.822 143.548L158.06 144.494C158.759 145.795 159.566 148.691 160.443 153.134C161.31 157.524 162.222 163.294 163.175 170.232C165.08 184.105 167.139 202.599 169.312 223.974C171.851 248.946 181.937 283.259 193.748 315.933C201.034 336.09 208.99 355.66 216.265 372.077H218.453C211.104 355.545 203.022 335.707 195.629 315.253C183.828 282.606 173.815 248.486 171.302 223.771Z" fill="#26562E"/>
<path d="M257.525 85.5417L258.623 76.8151L341.782 87.2755L340.684 96.0021C340.297 99.0821 340.539 101.303 347.926 108.906C355.313 116.51 356.083 126.967 355.545 131.244C356.402 150.959 336.058 269.585 327.044 308.082C323.03 320.092 308.486 322.955 294.113 321.147L245.86 315.078C220.194 311.849 213.558 303.193 212.571 293.682C210.214 270.964 229.185 136.729 234.913 116.07C236.411 104.161 245.173 98.0672 249.367 96.5089C254.708 93.8435 256.815 91.1884 257.525 85.5417Z" fill="#A3C2DE"/>
<path d="M253.951 60.0625C254.236 57.7945 256.306 56.1871 258.574 56.4724L348.92 67.8368C351.188 68.1221 352.796 70.192 352.51 72.46L350.961 84.78C350.675 87.048 348.605 88.6553 346.337 88.37L255.991 77.0056C253.723 76.7203 252.116 74.6504 252.401 72.3824L253.951 60.0625Z" fill="#F9E8E3"/>
<path d="M259.213 59.6815C259.285 59.1145 259.802 58.7127 260.369 58.784C260.936 58.8553 261.338 59.3728 261.267 59.9398L259.459 74.313C259.387 74.8801 258.87 75.2819 258.303 75.2106C257.736 75.1392 257.334 74.6218 257.405 74.0548L259.213 59.6815Z" fill="#C76D4F"/>
<path d="M263.32 60.1982C263.391 59.6311 263.909 59.2293 264.476 59.3006C265.043 59.372 265.444 59.8894 265.373 60.4564L263.565 74.8297C263.494 75.3967 262.976 75.7985 262.409 75.7272C261.842 75.6559 261.441 75.1384 261.512 74.5714L263.32 60.1982Z" fill="#C76D4F"/>
<path d="M267.427 60.7147C267.498 60.1477 268.016 59.7458 268.583 59.8172C269.15 59.8885 269.551 60.4059 269.48 60.973L267.672 75.3462C267.601 75.9132 267.083 76.315 266.516 76.2437C265.949 76.1724 265.547 75.6549 265.619 75.0879L267.427 60.7147Z" fill="#C76D4F"/>
<path d="M271.533 61.2312C271.605 60.6642 272.122 60.2623 272.689 60.3337C273.256 60.405 273.658 60.9225 273.587 61.4895L271.779 75.8627C271.707 76.4297 271.19 76.8315 270.623 76.7602C270.056 76.6889 269.654 76.1714 269.725 75.6044L271.533 61.2312Z" fill="#C76D4F"/>
<path d="M275.64 61.7478C275.711 61.1808 276.228 60.779 276.795 60.8503C277.362 60.9216 277.764 61.4391 277.693 62.0061L275.885 76.3793C275.814 76.9463 275.296 77.3482 274.729 77.2768C274.162 77.2055 273.76 76.6881 273.832 76.121L275.64 61.7478Z" fill="#C76D4F"/>
<path d="M279.746 62.2644C279.817 61.6974 280.335 61.2956 280.902 61.3669C281.469 61.4382 281.871 61.9557 281.799 62.5227L279.991 76.896C279.92 77.463 279.403 77.8648 278.836 77.7935C278.269 77.7222 277.867 77.2047 277.938 76.6377L279.746 62.2644Z" fill="#C76D4F"/>
<path d="M283.853 62.781C283.924 62.2139 284.442 61.8121 285.009 61.8834C285.576 61.9548 285.978 62.4722 285.906 63.0392L284.098 77.4125C284.027 77.9795 283.51 78.3813 282.943 78.31C282.376 78.2387 281.974 77.7212 282.045 77.1542L283.853 62.781Z" fill="#C76D4F"/>
<path d="M287.959 63.2975C288.031 62.7305 288.548 62.3286 289.115 62.4C289.682 62.4713 290.084 62.9887 290.013 63.5558L288.205 77.929C288.134 78.496 287.616 78.8978 287.049 78.8265C286.482 78.7552 286.08 78.2377 286.152 77.6707L287.959 63.2975Z" fill="#C76D4F"/>
<path d="M292.066 63.8141C292.138 63.2471 292.655 62.8453 293.222 62.9166C293.789 62.9879 294.191 63.5054 294.12 64.0724L292.312 78.4456C292.24 79.0126 291.723 79.4145 291.156 79.3431C290.589 79.2718 290.187 78.7543 290.258 78.1873L292.066 63.8141Z" fill="#C76D4F"/>
<path d="M296.173 64.3306C296.245 63.7636 296.762 63.3618 297.329 63.4331C297.896 63.5044 298.298 64.0219 298.227 64.5889L296.419 78.9621C296.347 79.5291 295.83 79.931 295.263 79.8597C294.696 79.7883 294.294 79.2709 294.365 78.7038L296.173 64.3306Z" fill="#C76D4F"/>
<path d="M300.28 64.8471C300.351 64.2801 300.869 63.8783 301.436 63.9496C302.003 64.0209 302.404 64.5384 302.333 65.1054L300.525 79.4786C300.454 80.0456 299.936 80.4475 299.369 80.3762C298.802 80.3048 298.4 79.7874 298.472 79.2204L300.28 64.8471Z" fill="#C76D4F"/>
<path d="M304.386 65.3638C304.458 64.7967 304.975 64.3949 305.542 64.4662C306.109 64.5376 306.511 65.055 306.44 65.622L304.632 79.9953C304.561 80.5623 304.043 80.9641 303.476 80.8928C302.909 80.8215 302.507 80.304 302.579 79.737L304.386 65.3638Z" fill="#C76D4F"/>
<path d="M308.493 65.8803C308.564 65.3133 309.082 64.9114 309.649 64.9827C310.216 65.0541 310.618 65.5715 310.546 66.1385L308.738 80.5118C308.667 81.0788 308.149 81.4806 307.582 81.4093C307.015 81.338 306.614 80.8205 306.685 80.2535L308.493 65.8803Z" fill="#C76D4F"/>
<path d="M312.6 66.3969C312.671 65.8299 313.189 65.4281 313.756 65.4994C314.323 65.5707 314.725 66.0882 314.653 66.6552L312.845 81.0284C312.774 81.5954 312.256 81.9973 311.689 81.9259C311.122 81.8546 310.721 81.3371 310.792 80.7701L312.6 66.3969Z" fill="#C76D4F"/>
<path d="M316.706 66.9134C316.778 66.3464 317.295 65.9446 317.862 66.0159C318.429 66.0872 318.831 66.6047 318.76 67.1717L316.952 81.5449C316.88 82.1119 316.363 82.5138 315.796 82.4424C315.229 82.3711 314.827 81.8537 314.898 81.2866L316.706 66.9134Z" fill="#C76D4F"/>
<path d="M320.813 67.4299C320.885 66.8629 321.402 66.4611 321.969 66.5324C322.536 66.6037 322.938 67.1212 322.867 67.6882L321.059 82.0614C320.987 82.6285 320.47 83.0303 319.903 82.959C319.336 82.8876 318.934 82.3702 319.005 81.8032L320.813 67.4299Z" fill="#C76D4F"/>
<path d="M324.92 67.9466C324.991 67.3796 325.508 66.9777 326.075 67.049C326.642 67.1204 327.044 67.6378 326.973 68.2048L325.165 82.5781C325.094 83.1451 324.576 83.5469 324.009 83.4756C323.442 83.4043 323.04 82.8868 323.112 82.3198L324.92 67.9466Z" fill="#C76D4F"/>
<path d="M329.027 68.463C329.098 67.8959 329.615 67.4941 330.182 67.5654C330.749 67.6368 331.151 68.1542 331.08 68.7212L329.272 83.0945C329.201 83.6615 328.683 84.0633 328.116 83.992C327.549 83.9207 327.147 83.4032 327.219 82.8362L329.027 68.463Z" fill="#C76D4F"/>
<path d="M333.133 68.9796C333.204 68.4126 333.721 68.0107 334.288 68.0821C334.855 68.1534 335.257 68.6709 335.186 69.2379L333.378 83.6111C333.307 84.1781 332.789 84.5799 332.222 84.5086C331.655 84.4373 331.253 83.9198 331.325 83.3528L333.133 68.9796Z" fill="#C76D4F"/>
<path d="M337.24 69.4961C337.311 68.9291 337.828 68.5273 338.395 68.5986C338.962 68.6699 339.364 69.1874 339.293 69.7544L337.485 84.1276C337.414 84.6946 336.896 85.0965 336.329 85.0251C335.762 84.9538 335.36 84.4363 335.432 83.8693L337.24 69.4961Z" fill="#C76D4F"/>
<path d="M341.346 70.0127C341.417 69.4457 341.935 69.0439 342.502 69.1152C343.069 69.1865 343.471 69.704 343.399 70.271L341.591 84.6442C341.52 85.2113 341.003 85.6131 340.435 85.5418C339.868 85.4704 339.467 84.953 339.538 84.386L341.346 70.0127Z" fill="#C76D4F"/>
<path d="M345.453 70.5292C345.524 69.9622 346.042 69.5604 346.609 69.6317C347.176 69.703 347.578 70.2205 347.506 70.7875L345.698 85.1608C345.627 85.7278 345.109 86.1296 344.542 86.0583C343.975 85.987 343.574 85.4695 343.645 84.9025L345.453 70.5292Z" fill="#C76D4F"/>
<path d="M254.977 60.1916C255.049 59.6246 255.566 59.2228 256.133 59.2941C256.7 59.3654 257.102 59.8829 257.031 60.4499L255.481 72.7698C255.41 73.3368 254.892 73.7387 254.325 73.6673C253.758 73.596 253.356 73.0786 253.428 72.5115L254.977 60.1916Z" fill="#C76D4F"/>
<path d="M349.43 72.0725C349.502 71.5055 350.019 71.1036 350.586 71.175C351.153 71.2463 351.555 71.7638 351.484 72.3308L349.934 84.6507C349.862 85.2177 349.345 85.6195 348.778 85.5482C348.211 85.4769 347.809 84.9594 347.88 84.3924L349.43 72.0725Z" fill="#C76D4F"/>
<path fill-rule="evenodd" clip-rule="evenodd" d="M213.027 273.839C215.816 234.696 226.802 156.63 232.71 126.077C241.581 128.42 261.134 132.926 292.78 136.907C326.181 141.108 346.675 141.406 355.087 141.275C352.461 171.243 339.738 246.566 331.084 289.293C320.531 289.382 301.566 288.911 274.568 285.837C242.262 282.159 221.603 276.526 213.027 273.839Z" fill="#F4DFC5"/>
<path d="M316.519 221.187C307.044 241.36 283.847 250.425 264.709 241.436C245.57 232.446 237.737 208.805 247.213 188.632C256.689 168.459 279.885 159.393 299.023 168.383C318.162 177.373 325.995 201.014 316.519 221.187Z" fill="#C76D4F"/>
<path fill-rule="evenodd" clip-rule="evenodd" d="M272.452 168.54C272.973 169.223 273.096 170.049 273.005 170.854C272.681 173.702 271.461 175.557 269.88 177.534C267.467 180.55 264.933 183.478 262.288 186.296C261.868 186.743 261.448 187.189 261.027 187.635C260.921 188.047 260.813 188.46 260.701 188.871C260.309 190.313 259.832 191.726 259.372 193.087C259.345 193.167 259.318 193.248 259.291 193.328C258.801 194.78 258.336 196.176 257.974 197.588C257.874 197.979 257.444 199.673 257.247 201.199C257.214 201.457 257.19 201.693 257.174 201.905C257.21 201.883 257.245 201.861 257.282 201.837C257.599 201.633 257.864 201.439 258.158 201.225C258.347 201.086 258.548 200.939 258.782 200.775C261.054 199.186 263.365 197.734 265.933 196.507C267.92 195.558 270.089 194.696 272.205 193.854C273.564 193.314 274.902 192.782 276.156 192.242C277.002 191.877 277.83 191.501 278.637 191.104C278.829 190.805 279.019 190.511 279.205 190.222C279.348 190 279.489 189.781 279.628 189.566C281.68 186.377 284.235 183.534 286.67 180.85C286.686 180.833 286.714 180.8 286.753 180.755C286.963 180.511 287.483 179.908 287.918 179.55C288.06 179.433 288.268 179.277 288.518 179.159C288.717 179.065 289.272 178.834 289.923 179.068C290.693 179.344 290.96 180.012 291.039 180.376C291.117 180.732 291.094 181.083 291.061 181.348C290.67 184.46 289.608 186.899 287.176 189.143C285.233 190.936 283.055 192.324 280.798 193.491C278.589 196.972 276.453 200.652 275.738 204.276C275.687 204.538 275.629 204.798 275.571 205.061C275.459 205.572 275.344 206.095 275.261 206.668C275.211 207.017 275.186 207.309 275.18 207.549C275.67 207.377 276.29 207.089 276.978 206.722C278.247 206.047 279.369 205.325 280.098 204.857C280.39 204.669 280.619 204.522 280.768 204.435C282.009 203.713 283.251 203.011 284.486 202.313C287.598 200.554 290.665 198.822 293.55 196.852C294.45 195.748 295.361 194.671 296.092 193.887C296.468 193.484 296.843 193.108 297.166 192.846C297.309 192.73 297.55 192.546 297.842 192.426C297.982 192.368 298.283 192.261 298.666 192.295C299.142 192.338 299.62 192.593 299.91 193.065C300.585 194.168 299.975 195.258 299.712 195.66C299.367 196.187 298.875 196.677 298.442 197.065C297.652 197.773 296.755 198.399 296.473 198.596C296.44 198.619 296.415 198.637 296.4 198.647C296.161 198.819 295.92 198.988 295.677 199.157C294.793 200.248 293.917 201.364 293.228 202.257C292.865 202.727 292.556 203.133 292.327 203.438C292.212 203.591 292.119 203.717 292.049 203.812C292.014 203.859 291.987 203.897 291.967 203.925C291.945 203.956 291.94 203.965 291.943 203.959C290.841 205.645 289.958 207.379 289.821 209.067C289.956 209.085 290.124 209.094 290.326 209.09C291.033 209.079 291.727 208.948 292.335 208.835C292.59 208.787 292.829 208.742 293.048 208.71C298.129 207.965 303.248 206.602 308.1 204.841C308.536 204.683 308.958 204.523 309.367 204.357C309.774 203.918 310.27 203.432 310.775 202.993C311.231 202.596 311.743 202.195 312.251 201.891C312.677 201.636 313.414 201.25 314.22 201.32C314.432 201.338 315.086 201.428 315.508 202.058C315.957 202.728 315.747 203.397 315.659 203.618C315.484 204.056 315.144 204.391 315.014 204.518C314.645 204.88 314.158 205.248 313.916 205.423C313.12 205.999 312.27 206.461 311.419 206.851C311.54 206.891 311.677 206.931 311.83 206.97C312.103 207.04 312.356 207.093 312.611 207.146C312.714 207.168 312.816 207.189 312.921 207.212C315.32 207.731 317.794 208.002 320.334 208.28C320.724 208.323 321.115 208.366 321.508 208.41C321.657 208.426 321.805 208.443 321.952 208.46C324.328 208.729 326.335 208.956 328.167 208.311C328.976 208.026 329.862 208.451 330.147 209.26C330.431 210.068 330.007 210.954 329.198 211.239C326.659 212.133 323.952 211.818 321.739 211.561C321.543 211.538 321.351 211.516 321.163 211.495C320.783 211.452 320.399 211.41 320.013 211.368C317.485 211.092 314.835 210.802 312.265 210.246C312.204 210.233 312.132 210.218 312.049 210.201C311.455 210.08 310.336 209.852 309.508 209.406C309.092 209.181 308.512 208.781 308.187 208.105C303.454 209.761 298.473 211.052 293.498 211.781C293.439 211.79 293.332 211.81 293.188 211.837C292.596 211.949 291.39 212.177 290.377 212.194C289.74 212.205 288.898 212.149 288.167 211.78C287.775 211.581 287.378 211.273 287.09 210.81C286.8 210.342 286.687 209.82 286.7 209.302C286.754 207.197 287.585 205.236 288.528 203.589C287.647 204.094 286.766 204.592 285.892 205.085C284.686 205.767 283.493 206.441 282.33 207.118C282.33 207.118 282.329 207.118 282.326 207.12C282.325 207.121 282.322 207.122 282.319 207.124L282.291 207.142C282.266 207.157 282.235 207.177 282.196 207.201C282.118 207.251 282.02 207.314 281.899 207.392C281.661 207.544 281.35 207.744 280.992 207.968C280.279 208.415 279.364 208.968 278.437 209.462C277.534 209.943 276.522 210.42 275.636 210.655C275.206 210.769 274.658 210.868 274.108 210.787C273.486 210.695 272.755 210.339 272.402 209.507C271.949 208.439 272.056 207.145 272.189 206.224C272.288 205.541 272.45 204.799 272.572 204.24C272.621 204.018 272.663 203.824 272.693 203.675C273.228 200.96 274.432 198.267 275.822 195.749C274.921 196.119 274.036 196.47 273.163 196.816C271.155 197.611 269.209 198.382 267.271 199.308C264.91 200.436 262.752 201.787 260.562 203.319C260.435 203.408 260.281 203.52 260.112 203.643C259.76 203.899 259.341 204.204 258.959 204.449C258.348 204.842 257.596 205.247 256.727 205.439C256.409 205.509 256.036 205.522 255.65 205.403C255.259 205.283 254.951 205.058 254.725 204.801C254.315 204.334 254.176 203.767 254.115 203.393C253.987 202.606 254.061 201.637 254.169 200.802C254.392 199.068 254.866 197.211 254.967 196.817C255.327 195.413 255.775 194.042 256.221 192.716C255.189 193.803 254.157 194.889 253.125 195.975C248.453 200.891 243.79 205.797 239.182 210.785C238.601 211.415 237.619 211.454 236.989 210.872C236.359 210.291 236.32 209.309 236.902 208.679C241.518 203.682 246.215 198.739 250.904 193.806C253.348 191.234 255.79 188.664 258.217 186.091C258.418 185.291 258.613 184.486 258.81 183.674L258.828 183.598C259.179 182.148 259.535 180.675 259.931 179.208C260.038 178.812 260.155 178.304 260.286 177.728C260.631 176.22 261.083 174.243 261.759 172.569C262.701 170.236 264.397 167.623 267.653 167.403C267.742 167.397 267.841 167.389 267.947 167.381C268.27 167.357 268.656 167.329 269.021 167.319C269.511 167.305 270.102 167.318 270.671 167.451C271.243 167.584 271.946 167.876 272.452 168.54ZM262.57 181.386C264.249 179.499 265.879 177.566 267.456 175.594C268.907 173.781 269.695 172.485 269.92 170.505C269.922 170.49 269.923 170.477 269.924 170.465C269.742 170.428 269.476 170.412 269.107 170.422C268.82 170.43 268.544 170.45 268.242 170.473C268.12 170.482 267.994 170.491 267.862 170.5C266.497 170.592 265.48 171.644 264.638 173.73C264.058 175.166 263.713 176.684 263.389 178.107C263.238 178.771 263.091 179.413 262.928 180.018C262.806 180.472 262.687 180.928 262.57 181.386ZM270.077 170.509C270.077 170.509 270.076 170.508 270.073 170.507C270.076 170.508 270.077 170.509 270.077 170.509ZM269.925 170.314C269.924 170.31 269.924 170.307 269.924 170.307C269.924 170.307 269.924 170.309 269.925 170.314ZM311.03 207.215C311.03 207.215 311.03 207.214 311.031 207.212C311.03 207.214 311.03 207.215 311.03 207.215ZM299.167 195.223C299.167 195.223 299.165 195.224 299.159 195.228C299.165 195.224 299.167 195.222 299.167 195.223ZM297.172 193.858C297.174 193.857 297.168 193.871 297.15 193.902C297.161 193.874 297.17 193.858 297.172 193.858ZM289.922 181.923C289.922 181.923 289.921 181.924 289.919 181.925C289.921 181.924 289.922 181.923 289.922 181.923ZM287.988 180.885C287.988 180.885 287.988 180.887 287.988 180.891C287.988 180.887 287.988 180.885 287.988 180.885ZM257.198 202.98C257.198 202.98 257.196 202.976 257.193 202.965C257.197 202.975 257.198 202.98 257.198 202.98Z" fill="#FAAB97"/>
<path d="M420.115 268.992C424.533 240.649 399.233 189.142 386.031 166.931L334.353 172.428C328.057 200.584 311.873 234.051 317.908 279.864C320.321 298.184 342.276 305.145 353.239 306.302L388.839 302.515C402.254 297.604 415.697 297.335 420.115 268.992Z" fill="#9EA77B"/>
<path fill-rule="evenodd" clip-rule="evenodd" d="M420.627 261.885C420.625 251.737 417.91 239.635 413.857 227.306C409.706 231.57 401.976 237.052 391.43 239.525C374.003 243.611 357.524 246.524 344.402 241.817C343.687 241.561 342.929 242.13 343.009 242.885L346.104 271.982C346.121 272.136 346.175 272.288 346.259 272.418C350.369 278.753 353.37 279.334 373.275 276.298C398.418 272.462 415.277 267.184 420.531 261.98C420.563 261.948 420.595 261.916 420.627 261.885Z" fill="#FFFBF7"/>
<path d="M353.411 133.236L349.624 97.6363L346.179 98.0028C345.03 98.125 342.734 98.3693 342.367 94.9241C342.074 92.1679 344.297 91.2346 345.446 91.1124C358.461 89.7279 386.559 86.7394 394.827 85.8595C401.718 85.1263 401.913 97.8811 399.616 98.1254C398.467 98.2476 399.005 92.3834 390.966 93.2386L355.366 97.0255L359.153 132.626L353.411 133.236Z" fill="#451D12"/>
<path d="M383.588 143.963L385.909 165.783L386.031 166.931L334.353 172.428L331.91 149.46C330.639 137.517 339.346 132.023 343.858 130.768L366.826 128.325C378.769 127.055 382.977 138.221 383.588 143.963Z" fill="#6B392C"/>
<path d="M387.866 221.614C370.533 254.642 371.402 297.679 377.638 318.82C377.858 319.568 378.815 319.776 379.377 319.236C388.18 310.776 417.079 295.226 431.094 288.186C476.084 261.639 484.921 245.825 495.139 220.36C495.166 220.293 495.187 220.216 495.199 220.145C501.152 184.56 518.384 214.003 540.468 180.669C563.101 153.889 561.425 96.7036 557.757 71.4582C555.885 47.129 548.05 35.2559 523.169 59.9933C523.135 60.0268 523.103 60.0634 523.074 60.1014C506.293 82.3771 472.409 113.109 457.484 125.761C457.437 125.8 457.396 125.843 457.357 125.89C447.47 138.069 455.634 150.148 445.85 165.677C431.328 188.728 412.529 174.617 387.866 221.614Z" fill="#69AA75"/>
<path d="M401.198 239.054C401.476 245.4 399.018 250.661 395.708 250.806C392.397 250.952 389.488 245.925 389.21 239.58C388.931 233.235 391.389 227.974 394.7 227.828C398.01 227.683 400.92 232.709 401.198 239.054Z" fill="#99D06F"/>
<path d="M419.952 211.043C421.982 215.991 421.206 220.996 418.217 222.222C415.229 223.448 411.161 220.432 409.131 215.484C407.1 210.536 407.877 205.531 410.865 204.305C413.853 203.079 417.921 206.096 419.952 211.043Z" fill="#99D06F"/>
<path d="M432.246 192.575C434.101 197.095 434.027 201.406 432.082 202.205C430.136 203.003 427.055 199.986 425.201 195.466C423.346 190.947 423.42 186.635 425.365 185.837C427.311 185.039 430.392 188.055 432.246 192.575Z" fill="#99D06F"/>
<path d="M457.445 164.834C457.031 168.295 455.002 170.897 452.914 170.647C450.826 170.397 449.469 167.389 449.883 163.929C450.298 160.469 452.326 157.866 454.415 158.116C456.503 158.367 457.86 161.374 457.445 164.834Z" fill="#99D06F"/>
<path d="M468.914 140.624C469.718 144.725 468.697 148.379 466.633 148.783C464.569 149.188 462.244 146.19 461.44 142.088C460.637 137.986 461.658 134.333 463.722 133.929C465.786 133.524 468.11 136.522 468.914 140.624Z" fill="#99D06F"/>
<path d="M480.845 121.115C482.334 125.021 481.947 128.795 479.982 129.544C478.017 130.293 475.217 127.733 473.728 123.827C472.24 119.922 472.626 116.148 474.591 115.399C476.557 114.65 479.356 117.209 480.845 121.115Z" fill="#99D06F"/>
<path d="M509.978 112.064C503.959 118.148 497.045 121.067 494.534 118.583C492.024 116.099 494.868 109.154 500.887 103.07C506.906 96.9859 513.821 94.0674 516.331 96.5512C518.842 99.035 515.998 105.98 509.978 112.064Z" fill="#99D06F"/>
<path d="M513.826 150.42C501.403 153.971 490.516 153.995 489.51 150.475C488.504 146.955 497.76 141.223 510.183 137.672C522.607 134.121 533.494 134.097 534.5 137.617C535.506 141.137 526.25 146.869 513.826 150.42Z" fill="#99D06F"/>
<path d="M498.741 181.545C485.909 182.675 475.217 180.311 474.861 176.264C474.505 172.218 484.619 168.022 497.451 166.892C510.283 165.762 520.975 168.126 521.331 172.173C521.687 176.219 511.573 180.416 498.741 181.545Z" fill="#99D06F"/>
<path d="M474.489 211.302C464.2 214.356 454.872 213.51 453.656 209.412C452.439 205.315 459.795 199.516 470.084 196.462C480.374 193.408 489.701 194.254 490.917 198.351C492.134 202.449 484.779 208.247 474.489 211.302Z" fill="#99D06F"/>
<path d="M454.321 239.384C442.131 241.007 431.712 238.295 431.05 233.325C430.388 228.355 439.734 223.01 451.924 221.387C464.115 219.763 474.534 222.475 475.196 227.445C475.858 232.415 466.512 237.76 454.321 239.384Z" fill="#99D06F"/>
<path d="M436.607 266.122C427.198 267.375 419.157 265.282 418.646 261.446C418.135 257.61 425.348 253.485 434.757 252.232C444.166 250.979 452.207 253.072 452.718 256.908C453.229 260.744 446.016 264.869 436.607 266.122Z" fill="#99D06F"/>
<path fill-rule="evenodd" clip-rule="evenodd" d="M491.556 131.876C492.065 131.222 491.949 130.28 491.296 129.77C490.643 129.261 489.7 129.377 489.19 130.03C465.647 160.207 430.059 211.694 399.762 268.143C381.529 302.114 365.171 337.958 354.528 372.077H357.671C368.229 338.522 384.353 303.198 402.405 269.562C432.612 213.281 468.103 161.936 491.556 131.876Z" fill="#2D6C57"/>
<path fill-rule="evenodd" clip-rule="evenodd" d="M440.901 251.799L439.96 257.847C436.439 257.919 428.963 260.843 427.231 271.971C423.984 281.786 412.34 328.498 412.774 372.077H624.957C625.053 371.507 625.15 370.934 625.247 370.358C629.461 345.362 634.414 315.987 634.713 307.981C635.103 297.512 633.437 292.297 626.234 286.84C625.553 285.908 624.342 283.076 624.944 279.206L440.901 251.799Z" fill="#EDA0A0"/>
<path d="M433.703 222.432C434.198 219.255 437.104 217.033 440.298 217.405C455.978 219.23 500.982 224.604 537.778 230.331C574.574 236.058 619.082 244.616 634.575 247.643C637.731 248.26 639.824 251.259 639.33 254.437L635.352 279.991C634.823 283.391 631.556 285.657 628.185 284.968C614.059 282.08 577.166 274.729 532.036 267.223C487.068 259.743 449.712 256.058 435.22 254.781C431.728 254.474 429.213 251.279 429.752 247.816L433.703 222.432Z" fill="#C63155"/>
<path fill-rule="evenodd" clip-rule="evenodd" d="M432.623 253.253L438.113 217.98C439.175 217.573 440.348 217.41 441.557 217.552C442.05 217.609 442.567 217.67 443.106 217.733L437.311 254.968C437.099 254.949 436.89 254.93 436.685 254.912C435.135 254.772 433.74 254.168 432.623 253.253ZM449.516 256.148C447.794 255.972 446.166 255.809 444.637 255.66L450.405 218.598C451.938 218.781 453.563 218.977 455.27 219.183L449.516 256.148ZM461.701 257.456C460.024 257.268 458.399 257.089 456.829 256.919L462.564 220.073C464.14 220.267 465.762 220.467 467.426 220.674L461.701 257.456ZM473.869 258.878C472.211 258.676 470.589 258.482 469.004 258.296L474.717 221.589C476.31 221.79 477.931 221.996 479.576 222.207L473.869 258.878ZM486.019 260.408C484.373 260.193 482.754 259.985 481.161 259.783L486.863 223.148C488.466 223.356 490.086 223.569 491.719 223.784L486.019 260.408ZM498.153 262.047C496.516 261.819 494.898 261.596 493.301 261.379L499.002 224.754C500.612 224.971 502.231 225.19 503.855 225.412L498.153 262.047ZM510.27 263.795C508.639 263.552 507.024 263.314 505.425 263.082L511.132 226.417C512.748 226.642 514.365 226.87 515.981 227.099L510.27 263.795ZM522.369 265.653C520.744 265.396 519.131 265.144 517.531 264.896L523.251 228.145C524.873 228.382 526.489 228.62 528.096 228.859L522.369 265.653ZM534.451 267.625C533.648 267.491 532.843 267.357 532.036 267.223C531.228 267.088 530.423 266.955 529.62 266.823L535.358 229.957C536.168 230.081 536.975 230.206 537.778 230.331C538.58 230.456 539.387 230.582 540.196 230.71L534.451 267.625ZM546.521 269.673C544.925 269.399 543.315 269.123 541.694 268.847L547.449 231.871C549.052 232.131 550.664 232.396 552.281 232.664L546.521 269.673ZM558.582 271.775C556.991 271.494 555.383 271.211 553.759 270.928L559.525 233.877C561.134 234.149 562.744 234.424 564.353 234.7L558.582 271.775ZM570.636 273.929C569.05 273.642 567.443 273.352 565.815 273.061L571.591 235.955C573.205 236.237 574.814 236.52 576.414 236.803L570.636 273.929ZM582.681 276.134C581.102 275.842 579.497 275.546 577.864 275.246L583.647 238.092C585.268 238.383 586.876 238.673 588.467 238.962L582.681 276.134ZM594.718 278.391C593.151 278.094 591.545 277.791 589.905 277.482L595.695 240.28C597.326 240.579 598.933 240.876 600.512 241.168L594.718 278.391ZM606.748 280.701C605.199 280.4 603.594 280.09 601.937 279.771L607.736 242.513C609.385 242.821 610.991 243.123 612.551 243.417L606.748 280.701ZM618.768 283.067C617.262 282.767 615.658 282.449 613.961 282.114L619.771 244.787C621.459 245.109 623.066 245.416 624.583 245.708L618.768 283.067ZM630.961 284.329C629.682 284.829 628.248 284.98 626.798 284.685C626.531 284.63 626.257 284.575 625.976 284.517L631.799 247.102C632.332 247.206 632.843 247.305 633.33 247.4C634.525 247.633 635.594 248.145 636.482 248.855L630.961 284.329Z" fill="#F6E8D7"/>
<path fill-rule="evenodd" clip-rule="evenodd" d="M457.922 277.368C456.285 277.113 454.751 278.233 454.496 279.87L440.546 369.498C440.393 370.479 440.735 371.424 441.386 372.077H595.003L605.692 303.403C605.947 301.766 604.826 300.232 603.189 299.978L457.922 277.368Z" fill="#F6E8D7"/>
<path fill-rule="evenodd" clip-rule="evenodd" d="M593.497 305.102C593.455 305.213 593.4 305.341 593.34 305.475C589.546 313.889 583.774 321.353 576.981 327.717C575.219 329.941 573.435 332.146 571.624 334.322C565.162 342.09 558.021 349.216 550.937 356.286C550.196 357.025 549.455 357.764 548.716 358.503C548.319 358.9 547.923 359.294 547.529 359.685C545.793 361.409 544.095 363.095 542.531 364.888C547.889 362.514 553.102 359.607 558.311 356.702C559.214 356.199 560.118 355.695 561.021 355.194C563.352 353.903 565.674 352.592 567.984 351.262C572.418 347.289 577.497 344.256 582.582 341.502C582.768 341.401 583.011 341.257 583.326 341.069C583.379 341.038 583.435 341.005 583.492 340.971C583.872 340.745 584.319 340.482 584.783 340.231C585.244 339.982 585.748 339.731 586.247 339.534C586.729 339.344 587.298 339.166 587.868 339.132C587.995 339.124 588.182 339.12 588.386 339.154C588.52 339.176 589.04 339.27 589.415 339.76C589.907 340.401 589.72 341.086 589.583 341.377C589.457 341.646 589.282 341.827 589.203 341.905C588.897 342.206 588.398 342.505 588.044 342.712C587.686 342.92 587.274 343.146 586.898 343.352C586.838 343.385 586.779 343.417 586.722 343.449C586.277 343.692 585.927 343.888 585.717 344.022C580.477 347.372 575.146 350.594 569.757 353.702C569.624 353.822 569.483 353.947 569.337 354.076C568.668 354.665 567.891 355.35 567.298 356.114C566.501 357.142 566.597 357.571 566.728 357.774C567.172 358.46 567.99 359.13 569.075 359.783C569.963 360.318 570.906 360.771 571.795 361.198C571.98 361.287 572.162 361.374 572.34 361.461C576.663 363.563 581.224 364.611 586.053 365.721C586.562 365.838 587.074 365.956 587.589 366.076C588.396 366.263 588.898 367.069 588.711 367.876C588.523 368.683 587.717 369.185 586.91 368.998C586.394 368.878 585.876 368.759 585.357 368.64C580.576 367.543 575.677 366.419 571.029 364.159C570.873 364.084 570.707 364.004 570.533 363.92C569.643 363.493 568.549 362.968 567.528 362.353C566.319 361.626 565.027 360.669 564.208 359.401C563.719 358.644 563.579 357.884 563.643 357.17C563.254 357.386 562.865 357.603 562.475 357.818C561.586 358.311 560.691 358.81 559.793 359.311C554.446 362.293 548.945 365.361 543.284 367.834L543.205 367.869C542.661 368.107 541.643 368.552 540.779 368.804C540.39 368.917 539.749 369.083 539.161 368.995C538.842 368.947 538.218 368.774 537.846 368.132C537.484 367.509 537.621 366.888 537.728 366.575C537.954 365.916 538.333 365.321 538.68 364.845C538.985 364.428 539.318 364.033 539.579 363.724C539.618 363.678 539.656 363.634 539.691 363.592C541.496 361.446 543.502 359.455 545.442 357.529C545.83 357.144 546.215 356.762 546.595 356.382C547.333 355.644 548.071 354.907 548.809 354.171C554.497 348.494 560.148 342.855 565.445 336.9C562.61 338.821 559.703 340.579 556.775 342.166C544.08 349.046 529.898 354.738 515.544 357.311C515.489 357.32 515.398 357.338 515.275 357.362C514.329 357.546 511.503 358.096 508.875 358.222C507.422 358.292 505.818 358.248 504.581 357.824C503.953 357.608 503.257 357.241 502.778 356.582C502.259 355.866 502.143 355.016 502.329 354.174C502.619 352.854 503.263 351.627 503.947 350.563C504.55 349.626 505.237 348.738 505.821 347.982C505.9 347.88 505.977 347.78 506.052 347.683C506.233 347.448 506.416 347.216 506.601 346.986C501.438 349.114 495.982 350.606 490.922 351.887C490.759 351.929 490.571 351.978 490.363 352.032C488.707 352.464 485.725 353.242 482.964 353.323C481.412 353.369 479.736 353.205 478.344 352.495C476.852 351.733 475.792 350.392 475.538 348.419C475.241 346.118 476.178 343.814 477.277 341.921C478.007 340.663 478.876 339.476 479.68 338.456C478.754 338.773 477.818 339.039 476.879 339.242C475.948 339.444 475.037 339.432 474.225 339.067C473.39 338.692 472.864 338.036 472.551 337.348C472.209 336.598 472.081 335.721 472.05 334.88C469.037 336.642 466.002 338.352 462.992 340.048C460.122 341.666 457.274 343.27 454.488 344.896C453.773 345.314 452.854 345.072 452.437 344.356C452.019 343.641 452.261 342.722 452.976 342.305C455.851 340.628 458.757 338.99 461.662 337.352C465.243 335.334 468.823 333.316 472.342 331.226C473.094 327.273 475.21 323.617 477.568 320.696C482.283 314.855 487.954 309.545 493.767 304.91C495.898 303.211 498.305 301.299 500.884 299.922L500.911 299.907C501.751 299.459 503.093 298.742 504.654 298.916C505.286 298.986 505.911 299.21 506.408 299.678C506.908 300.149 507.142 300.738 507.227 301.283C507.385 302.287 507.08 303.373 506.763 304.215C506.099 305.978 504.933 307.776 504.611 308.272C500.922 313.944 495.638 318.509 490.579 322.532C485.717 326.4 480.472 329.838 475.107 333.068C475.094 333.199 475.084 333.33 475.076 333.462C474.998 334.704 475.055 335.61 475.281 336.104C475.365 336.29 475.43 336.32 475.454 336.33C475.499 336.35 475.711 336.425 476.243 336.31C479.133 335.684 482.066 334.361 484.787 332.725C486.128 331.399 487.523 330.134 488.949 328.931C489.059 328.838 489.169 328.737 489.307 328.609C489.328 328.59 489.349 328.57 489.372 328.55C489.53 328.404 489.723 328.228 489.933 328.061C490.346 327.731 490.944 327.333 491.728 327.21C491.865 327.189 492.072 327.167 492.305 327.196C492.527 327.224 492.947 327.321 493.297 327.693C493.684 328.104 493.75 328.595 493.721 328.926C493.695 329.224 493.594 329.454 493.532 329.577C493.406 329.829 493.232 330.044 493.11 330.186C492.971 330.346 492.814 330.507 492.657 330.659C492.042 331.255 491.199 331.934 490.761 332.27C489.491 333.246 488.109 334.21 486.65 335.104C485.434 336.321 484.274 337.585 483.187 338.896C482.142 340.158 480.85 341.741 479.871 343.428C478.871 345.15 478.345 346.734 478.513 348.036C478.637 348.999 479.072 349.498 479.708 349.823C480.443 350.198 481.525 350.364 482.876 350.325C485.266 350.255 487.892 349.573 489.583 349.134C489.8 349.078 490.002 349.026 490.186 348.979C497.706 347.075 505.675 344.795 512.229 340.853C513.75 339.342 515.314 337.85 516.931 336.418L516.953 336.399L517.003 336.354C517.024 336.336 517.047 336.315 517.074 336.292C517.101 336.269 517.13 336.243 517.162 336.215C517.289 336.104 517.459 335.958 517.639 335.809C517.817 335.662 518.02 335.5 518.211 335.361C518.307 335.292 518.414 335.218 518.524 335.152C518.614 335.097 518.786 334.996 518.996 334.928C519.167 334.872 519.387 334.811 519.624 334.79C519.787 334.775 520.347 334.736 520.851 335.141C521.507 335.667 521.475 336.407 521.407 336.731C521.342 337.039 521.202 337.28 521.125 337.404C520.819 337.893 520.22 338.486 519.678 338.989C518.507 340.073 516.865 341.392 515.943 342.028C515.339 342.445 514.721 342.845 514.093 343.231C512.069 345.251 510.133 347.302 508.429 349.514C508.35 349.616 508.27 349.719 508.191 349.822C507.599 350.587 506.997 351.366 506.47 352.186C505.872 353.116 505.44 353.998 505.258 354.82C505.256 354.831 505.254 354.841 505.252 354.85C505.303 354.882 505.396 354.932 505.554 354.986C506.22 355.214 507.339 355.293 508.731 355.226C511.104 355.112 513.657 354.619 514.672 354.423C514.821 354.394 514.937 354.371 515.014 354.358C528.97 351.857 542.845 346.303 555.345 339.529C562.209 335.809 568.896 331.153 574.768 325.679C578.989 320.346 583.092 314.89 587.138 309.423C587.684 308.686 588.631 307.144 589.461 305.792C589.544 305.658 589.625 305.525 589.704 305.396C590.121 304.718 590.509 304.091 590.738 303.764C590.789 303.691 590.874 303.571 590.97 303.465L590.972 303.463C590.993 303.439 591.161 303.248 591.424 303.112C591.526 303.059 592.061 302.788 592.706 303.06C593.433 303.366 593.582 304.036 593.61 304.221C593.645 304.447 593.619 304.628 593.61 304.69C593.597 304.774 593.58 304.843 593.568 304.885C593.545 304.971 593.517 305.048 593.497 305.102ZM519.93 337.779C519.979 337.763 519.986 337.764 519.96 337.768C519.95 337.772 519.94 337.775 519.93 337.779ZM476.118 328.936C480.487 326.224 484.725 323.356 488.712 320.185C493.746 316.181 498.692 311.87 502.096 306.636C502.427 306.127 503.421 304.578 503.956 303.157C504.184 302.553 504.264 302.134 504.271 301.893C503.76 301.854 503.203 302.084 502.297 302.568C500 303.794 497.803 305.528 495.638 307.255C489.945 311.794 484.445 316.954 479.902 322.581C478.353 324.499 476.999 326.666 476.118 328.936ZM504.432 301.918C504.432 301.919 504.431 301.918 504.43 301.918L504.432 301.918Z" fill="#6B392C"/>
</svg>
