<svg width="195" height="25" viewBox="0 0 195 25" fill="none" xmlns="http://www.w3.org/2000/svg">
<path d="M0 19.628V5.74H4.116V10.864H5.544L6.748 8.316C7.028 7.73733 7.31733 7.26133 7.616 6.888C7.91467 6.496 8.24133 6.19733 8.596 5.992C8.96933 5.768 9.36133 5.61867 9.772 5.544C10.1827 5.45067 10.64 5.404 11.144 5.404C11.5547 5.404 11.928 5.46933 12.264 5.6L11.62 9.408C11.5267 9.37067 11.4333 9.34267 11.34 9.324C11.2653 9.30533 11.1813 9.296 11.088 9.296C10.7333 9.296 10.416 9.38 10.136 9.548C9.856 9.716 9.58533 10.0987 9.324 10.696L8.596 12.348L13.272 19.628H8.764L5.572 14.084H4.116V19.628H0Z" fill="#E31E24"/>
<path d="M20.5109 19.964C19.6335 19.964 18.7842 19.8053 17.9629 19.488C17.1415 19.152 16.4135 18.676 15.7789 18.06C15.1629 17.444 14.6682 16.688 14.2949 15.792C13.9215 14.8773 13.7349 13.8413 13.7349 12.684C13.7349 11.5267 13.9215 10.5 14.2949 9.604C14.6682 8.68933 15.1629 7.924 15.7789 7.308C16.4135 6.692 17.1415 6.22533 17.9629 5.908C18.7842 5.572 19.6335 5.404 20.5109 5.404C21.3882 5.404 22.2282 5.572 23.0309 5.908C23.8522 6.22533 24.5709 6.692 25.1869 7.308C25.8215 7.924 26.3255 8.68933 26.6989 9.604C27.0722 10.5 27.2589 11.5267 27.2589 12.684C27.2589 13.8413 27.0722 14.8773 26.6989 15.792C26.3255 16.688 25.8215 17.444 25.1869 18.06C24.5709 18.676 23.8522 19.152 23.0309 19.488C22.2282 19.8053 21.3882 19.964 20.5109 19.964ZM20.5109 16.632C21.3509 16.632 21.9855 16.2773 22.4149 15.568C22.8442 14.8587 23.0589 13.8973 23.0589 12.684C23.0589 11.4707 22.8442 10.5093 22.4149 9.8C21.9855 9.09067 21.3509 8.736 20.5109 8.736C19.6522 8.736 19.0082 9.09067 18.5789 9.8C18.1682 10.5093 17.9629 11.4707 17.9629 12.684C17.9629 13.8973 18.1682 14.8587 18.5789 15.568C19.0082 16.2773 19.6522 16.632 20.5109 16.632Z" fill="#E31E24"/>
<path d="M36.1261 19.964C35.1555 19.964 34.2501 19.8053 33.4101 19.488C32.5888 19.152 31.8701 18.676 31.2541 18.06C30.6381 17.444 30.1528 16.688 29.7981 15.792C29.4435 14.8773 29.2661 13.8413 29.2661 12.684C29.2661 11.5267 29.4621 10.5 29.8541 9.604C30.2461 8.68933 30.7688 7.924 31.4221 7.308C32.0941 6.692 32.8688 6.22533 33.7461 5.908C34.6235 5.572 35.5381 5.404 36.4901 5.404C37.3488 5.404 38.1048 5.544 38.7581 5.824C39.4301 6.104 40.0275 6.45867 40.5501 6.888L38.6181 9.548C37.9648 9.00667 37.3395 8.736 36.7421 8.736C35.7341 8.736 34.9408 9.09067 34.3621 9.8C33.7835 10.5093 33.4941 11.4707 33.4941 12.684C33.4941 13.8973 33.7835 14.8587 34.3621 15.568C34.9595 16.2773 35.7061 16.632 36.6021 16.632C37.0501 16.632 37.4795 16.5387 37.8901 16.352C38.3195 16.1467 38.7208 15.904 39.0941 15.624L40.7181 18.312C40.0275 18.9093 39.2808 19.3387 38.4781 19.6C37.6755 19.8427 36.8915 19.964 36.1261 19.964Z" fill="#E31E24"/>
<path d="M43.1484 19.628V5.74H47.8524L49.5884 10.5C49.7751 11.06 49.9431 11.6013 50.0924 12.124C50.2604 12.628 50.4191 13.1227 50.5684 13.608H50.6804C50.8484 13.1227 51.0164 12.628 51.1844 12.124C51.3524 11.6013 51.5204 11.06 51.6884 10.5L53.3124 5.74H57.9884V19.628H54.3484V16.072C54.3484 15.6987 54.3578 15.2507 54.3764 14.728C54.4138 14.2053 54.4511 13.664 54.4884 13.104C54.5444 12.544 54.5911 12.0027 54.6284 11.48C54.6844 10.9387 54.7311 10.472 54.7684 10.08H54.6564C54.4511 10.696 54.2271 11.3493 53.9844 12.04C53.7418 12.7307 53.5178 13.3747 53.3124 13.972L51.6884 18.424H49.4484L47.7964 13.972C47.5911 13.3747 47.3578 12.7307 47.0964 12.04C46.8538 11.3307 46.6298 10.6773 46.4244 10.08H46.3124C46.3498 10.472 46.3871 10.9387 46.4244 11.48C46.4804 12.0027 46.5271 12.544 46.5644 13.104C46.6204 13.664 46.6671 14.2053 46.7044 14.728C46.7418 15.2507 46.7604 15.6987 46.7604 16.072V19.628H43.1484Z" fill="#E31E24"/>
<path d="M67.8488 19.964C66.8595 19.964 65.9355 19.8053 65.0768 19.488C64.2181 19.152 63.4715 18.676 62.8368 18.06C62.2021 17.4253 61.7075 16.66 61.3528 15.764C60.9981 14.868 60.8208 13.8413 60.8208 12.684C60.8208 11.564 61.0075 10.556 61.3808 9.66C61.7541 8.74533 62.2395 7.98 62.8368 7.364C63.4528 6.72933 64.1528 6.244 64.9368 5.908C65.7208 5.572 66.5328 5.404 67.3728 5.404C68.3621 5.404 69.2208 5.572 69.9488 5.908C70.6955 6.244 71.3115 6.71067 71.7968 7.308C72.3008 7.90533 72.6741 8.61467 72.9168 9.436C73.1595 10.2387 73.2808 11.116 73.2808 12.068C73.2808 12.4413 73.2621 12.796 73.2248 13.132C73.1875 13.468 73.1501 13.72 73.1128 13.888H64.7968C64.9835 14.896 65.3941 15.6427 66.0288 16.128C66.6822 16.5947 67.4755 16.828 68.4088 16.828C69.3981 16.828 70.3968 16.52 71.4048 15.904L72.7768 18.396C72.0675 18.8813 71.2741 19.264 70.3968 19.544C69.5381 19.824 68.6888 19.964 67.8488 19.964ZM64.7688 11.172H69.7808C69.7808 10.388 69.6035 9.75333 69.2488 9.268C68.8941 8.78267 68.2968 8.54 67.4568 8.54C66.8035 8.54 66.2248 8.75467 65.7208 9.184C65.2355 9.61333 64.9181 10.276 64.7688 11.172Z" fill="#E31E24"/>
<path d="M78.8476 19.628V8.96H74.7596V5.74H87.0796V8.96H82.9636V19.628H78.8476Z" fill="#E31E24"/>
<path d="M89.6328 19.628V5.74H93.6088V9.604C93.6088 10.2947 93.5715 11.0787 93.4968 11.956C93.4221 12.8147 93.3475 13.6733 93.2728 14.532H93.3568C93.5808 14.1027 93.8515 13.6173 94.1688 13.076C94.4862 12.516 94.7475 12.0307 94.9528 11.62L98.5648 5.74H102.317V19.628H98.3408V15.764C98.3408 15.0547 98.3781 14.2707 98.4528 13.412C98.5275 12.5533 98.6115 11.6947 98.7048 10.836H98.5928C98.3688 11.2653 98.0982 11.76 97.7808 12.32C97.4821 12.88 97.2208 13.356 96.9968 13.748L93.3848 19.628H89.6328Z" fill="#E31E24"/>
<path d="M113.601 19.628V14.896C113.228 14.9893 112.873 15.0547 112.537 15.092C112.201 15.1107 111.744 15.12 111.165 15.12C110.344 15.12 109.578 15.0267 108.869 14.84C108.178 14.6347 107.581 14.3173 107.077 13.888C106.573 13.4587 106.181 12.908 105.901 12.236C105.621 11.5453 105.481 10.7147 105.481 9.744V5.74H109.597V9.744C109.597 10.4533 109.784 10.9947 110.157 11.368C110.549 11.7227 111.184 11.9 112.061 11.9C112.36 11.9 112.621 11.8907 112.845 11.872C113.088 11.8347 113.34 11.788 113.601 11.732V5.74H117.717V19.628H113.601Z" fill="#E31E24"/>
<path d="M121.352 19.628V5.74H125.468V10.864H126.896L128.1 8.316C128.38 7.73733 128.669 7.26133 128.968 6.888C129.266 6.496 129.593 6.19733 129.948 5.992C130.321 5.768 130.713 5.61867 131.124 5.544C131.534 5.45067 131.992 5.404 132.496 5.404C132.906 5.404 133.28 5.46933 133.616 5.6L132.972 9.408C132.878 9.37067 132.785 9.34267 132.692 9.324C132.617 9.30533 132.533 9.296 132.44 9.296C132.085 9.296 131.768 9.38 131.488 9.548C131.208 9.716 130.937 10.0987 130.676 10.696L129.948 12.348L134.624 19.628H130.116L126.924 14.084H125.468V19.628H121.352Z" fill="#E31E24"/>
<path d="M139.863 19.964C139.229 19.964 138.65 19.852 138.127 19.628C137.623 19.4227 137.194 19.1333 136.839 18.76C136.485 18.368 136.205 17.92 135.999 17.416C135.813 16.912 135.719 16.3613 135.719 15.764C135.719 14.308 136.335 13.1693 137.567 12.348C138.799 11.5267 140.787 10.976 143.531 10.696C143.494 10.08 143.307 9.59467 142.971 9.24C142.654 8.86667 142.113 8.68 141.347 8.68C140.75 8.68 140.153 8.792 139.555 9.016C138.977 9.24 138.351 9.548 137.679 9.94L136.195 7.224C137.091 6.68267 138.025 6.244 138.995 5.908C139.985 5.572 141.03 5.404 142.131 5.404C143.923 5.404 145.286 5.91733 146.219 6.944C147.171 7.952 147.647 9.52934 147.647 11.676V19.628H144.287L144.007 18.2H143.895C143.298 18.7227 142.673 19.152 142.019 19.488C141.366 19.8053 140.647 19.964 139.863 19.964ZM141.263 16.772C141.73 16.772 142.131 16.6693 142.467 16.464C142.803 16.2587 143.158 15.9693 143.531 15.596V13.16C142.075 13.3653 141.067 13.664 140.507 14.056C139.947 14.448 139.667 14.9147 139.667 15.456C139.667 15.904 139.807 16.24 140.087 16.464C140.386 16.6693 140.778 16.772 141.263 16.772Z" fill="#E31E24"/>
<path d="M153.509 19.964C152.8 19.964 152.202 19.7213 151.717 19.236C151.25 18.732 151.017 18.116 151.017 17.388C151.017 16.6413 151.25 16.0253 151.717 15.54C152.202 15.036 152.8 14.784 153.509 14.784C154.218 14.784 154.806 15.036 155.273 15.54C155.758 16.0253 156.001 16.6413 156.001 17.388C156.001 18.116 155.758 18.732 155.273 19.236C154.806 19.7213 154.218 19.964 153.509 19.964Z" fill="#E31E24"/>
<path d="M159.523 24.78V5.74H162.883L163.163 7.112H163.275C163.817 6.62667 164.423 6.22533 165.095 5.908C165.786 5.572 166.495 5.404 167.223 5.404C168.063 5.404 168.819 5.572 169.491 5.908C170.163 6.244 170.733 6.72 171.199 7.336C171.666 7.952 172.021 8.69867 172.263 9.576C172.525 10.4347 172.655 11.396 172.655 12.46C172.655 13.6547 172.487 14.7187 172.151 15.652C171.834 16.5667 171.395 17.3507 170.835 18.004C170.294 18.6387 169.669 19.124 168.959 19.46C168.269 19.796 167.55 19.964 166.803 19.964C166.206 19.964 165.627 19.8427 165.067 19.6C164.507 19.3387 163.985 18.9747 163.499 18.508L163.639 20.72V24.78H159.523ZM165.851 16.604C166.561 16.604 167.167 16.2867 167.671 15.652C168.175 14.9987 168.427 13.9533 168.427 12.516C168.427 10.0147 167.625 8.764 166.019 8.764C165.217 8.764 164.423 9.184 163.639 10.024V15.708C164.013 16.044 164.386 16.2773 164.759 16.408C165.133 16.5387 165.497 16.604 165.851 16.604Z" fill="#E31E24"/>
<path d="M182.658 24.78V21.224L182.77 19.124C182.397 19.348 181.986 19.544 181.538 19.712C181.109 19.88 180.661 19.964 180.194 19.964C179.373 19.964 178.636 19.796 177.982 19.46C177.329 19.124 176.769 18.648 176.302 18.032C175.836 17.3973 175.472 16.632 175.21 15.736C174.968 14.84 174.846 13.8227 174.846 12.684C174.846 11.5453 174.996 10.528 175.294 9.632C175.612 8.736 176.013 7.98 176.498 7.364C177.002 6.72933 177.572 6.244 178.206 5.908C178.86 5.572 179.522 5.404 180.194 5.404C180.754 5.404 181.24 5.47867 181.65 5.628C182.061 5.75867 182.434 5.936 182.77 6.16L182.658 4.144V0H186.662V4.144L186.522 6.272C186.933 6.02933 187.381 5.824 187.866 5.656C188.37 5.488 188.874 5.404 189.378 5.404C190.162 5.404 190.862 5.572 191.478 5.908C192.113 6.244 192.645 6.72 193.074 7.336C193.522 7.952 193.868 8.69867 194.11 9.576C194.353 10.4347 194.474 11.396 194.474 12.46C194.474 13.6547 194.316 14.7187 193.998 15.652C193.7 16.5667 193.298 17.3507 192.794 18.004C192.29 18.6387 191.712 19.124 191.058 19.46C190.405 19.796 189.724 19.964 189.014 19.964C188.1 19.964 187.269 19.712 186.522 19.208L186.662 21.224V24.78H182.658ZM181.286 16.604C181.865 16.604 182.36 16.3987 182.77 15.988V9.296C182.528 9.09067 182.266 8.95067 181.986 8.876C181.706 8.80133 181.436 8.764 181.174 8.764C180.596 8.764 180.101 9.08133 179.69 9.716C179.28 10.332 179.074 11.3027 179.074 12.628C179.074 14.0093 179.261 15.0173 179.634 15.652C180.026 16.2867 180.577 16.604 181.286 16.604ZM188.062 16.604C188.697 16.604 189.22 16.2867 189.63 15.652C190.041 14.9987 190.246 13.9533 190.246 12.516C190.246 10.0147 189.546 8.764 188.146 8.764C187.866 8.764 187.596 8.81067 187.334 8.904C187.073 8.97867 186.802 9.128 186.522 9.352V16.044C186.784 16.268 187.045 16.4173 187.306 16.492C187.568 16.5667 187.82 16.604 188.062 16.604Z" fill="#E31E24"/>
</svg>
