<svg width="12" height="12" viewBox="0 0 12 12" fill="none" xmlns="http://www.w3.org/2000/svg">
<path fill-rule="evenodd" clip-rule="evenodd" d="M6.19533 0.862147C6.32035 0.73716 6.48989 0.666946 6.66667 0.666946C6.84344 0.666946 7.01298 0.73716 7.138 0.862147L11.8047 5.52905C11.9296 5.65407 11.9999 5.82362 11.9999 6.0004C11.9999 6.17719 11.9296 6.34673 11.8047 6.47176L7.138 11.1387C7.01227 11.2601 6.84386 11.3273 6.66907 11.3258C6.49427 11.3243 6.32706 11.2541 6.20345 11.1305C6.07985 11.0069 6.00974 10.8397 6.00822 10.6649C6.0067 10.4901 6.07389 10.3217 6.19533 10.1959L9.724 6.6671H0.666667C0.489856 6.6671 0.320286 6.59686 0.195262 6.47183C0.0702379 6.3468 0 6.17722 0 6.0004C0 5.82358 0.0702379 5.654 0.195262 5.52897C0.320286 5.40394 0.489856 5.3337 0.666667 5.3337H9.724L6.19533 1.80486C6.07035 1.67984 6.00014 1.51029 6.00014 1.3335C6.00014 1.15672 6.07035 0.987172 6.19533 0.862147Z" fill="black"/>
</svg>
