<svg xmlns="http://www.w3.org/2000/svg">
    <symbol id="sale" viewBox="0 0 24 24" fill="none">
        <circle cx="17" cy="17" r="3" stroke-width="2"/>
        <circle cx="7" cy="7" r="3" stroke-width="2"/>
        <path d="M18 6L6 18" stroke-width="2" stroke-linecap="round"/>
    </symbol>
    <symbol id="rarr" viewBox="-1 0 14 12">
        <path stroke-width="0" fill-rule="evenodd" clip-rule="evenodd"
            d="M6.19533 0.862147C6.32035 0.73716 6.48989 0.666946 6.66667 0.666946C6.84344 0.666946 7.01298 0.73716 7.138 0.862147L11.8047 5.52905C11.9296 5.65407 11.9999 5.82362 11.9999 6.0004C11.9999 6.17719 11.9296 6.34673 11.8047 6.47176L7.138 11.1387C7.01227 11.2601 6.84386 11.3273 6.66907 11.3258C6.49427 11.3243 6.32706 11.2541 6.20345 11.1305C6.07985 11.0069 6.00974 10.8397 6.00822 10.6649C6.0067 10.4901 6.07389 10.3217 6.19533 10.1959L9.724 6.6671H0.666667C0.489856 6.6671 0.320286 6.59686 0.195262 6.47183C0.0702379 6.3468 0 6.17722 0 6.0004C0 5.82358 0.0702379 5.654 0.195262 5.52897C0.320286 5.40394 0.489856 5.3337 0.666667 5.3337H9.724L6.19533 1.80486C6.07035 1.67984 6.00014 1.51029 6.00014 1.3335C6.00014 1.15672 6.07035 0.987172 6.19533 0.862147Z"/>
    </symbol>
    <symbol id="seek" viewBox="0 0 16 16">
        <path fill-rule="evenodd" clip-rule="evenodd" stroke-width="0"
            d="M11.206 12.617L14.296 15.703C14.686 16.099 15.316 16.099 15.706 15.703C16.098 15.308 16.098 14.669 15.706 14.273L12.626 11.193C13.496 10.025 14.013 8.577 14.013 7.007C14.013 3.137 10.876 0 7.007 0C3.137 0 0 3.137 0 7.007C0 10.877 3.137 14.014 7.007 14.014C8.582 14.014 10.036 13.494 11.206 12.617ZM7.006 12.012C4.243 12.012 2.002 9.772 2.002 7.007C2.002 4.243 4.242 2.002 7.007 2.002C9.771 2.002 12.011 4.242 12.011 7.007C12.011 9.771 9.771 12.012 7.008 12.012H7.006Z"/>
    </symbol>
    <symbol id="menu" viewBox="0 0 24 24" stroke-width="0">
        <path d="M21 6.85714C21 6.38376 20.6776 6 20.28 6H3.72C3.32236 6 3 6.38376 3 6.85714C3 7.33053 3.32236 7.71429 3.72 7.71429H20.28C20.6776 7.71429 21 7.33053 21 6.85714Z"/>
        <path d="M21 12C21 11.5266 20.6776 11.1429 20.28 11.1429H3.72C3.32236 11.1429 3 11.5266 3 12C3 12.4734 3.32236 12.8571 3.72 12.8571H20.28C20.6776 12.8571 21 12.4734 21 12Z"/>
        <path d="M15.96 17.1429C15.96 16.6695 15.6376 16.2857 15.24 16.2857H3.72C3.32236 16.2857 3 16.6695 3 17.1429C3 17.6162 3.32236 18 3.72 18H15.24C15.6376 18 15.96 17.6162 15.96 17.1429Z"/>
    </symbol>
    <symbol id="close" viewBox="-1 -1 16 16" stroke-width="0">
        <path d="M12.5279 0.195341C12.824 -0.100795 13.3499 -0.0550682 13.7024 0.297475C14.0549 0.650018 14.1007 1.17588 13.8045 1.47201L8.27666 6.99994L13.8047 12.528C14.1008 12.8241 14.0551 13.35 13.7025 13.7025C13.35 14.0551 12.8241 14.1008 12.528 13.8047L7 8.27661L1.472 13.8047C1.17587 14.1008 0.650013 14.0551 0.297473 13.7025C-0.0550675 13.35 -0.100794 12.8241 0.195339 12.528L5.72334 6.99994L0.19546 1.47201C-0.100674 1.17588 -0.0549477 0.650018 0.297592 0.297475C0.650132 -0.0550682 1.17599 -0.100795 1.47212 0.195341L7 5.72327L12.5279 0.195341Z"/>
    </symbol>
</svg>
