<svg xmlns="http://www.w3.org/2000/svg">
    <symbol id="v2-header-cart" viewBox="0 0 33 33">
        <path fill-rule="evenodd" clip-rule="evenodd" d="M11.067 9.5H9.5a1 1 0 00-.996.915l-1.5 17.5A1 1 0 008 29h17a1 1 0 00.996-1.085l-1.5-17.5A1 1 0 0023.5 9.5h-1.567c-.119-.914-.407-1.987-.971-2.945C20.142 5.163 18.718 4 16.5 4c-2.218 0-3.642 1.163-4.462 2.555-.564.958-.852 2.03-.97 2.945zm2.022 0h6.822c-.107-.631-.318-1.328-.673-1.93C18.708 6.67 17.882 6 16.5 6s-2.208.67-2.738 1.57c-.355.602-.566 1.299-.673 1.93zm-2.671 2L9.089 27h14.822l-1.329-15.5H10.418z"/>
    </symbol>
    <symbol id="sale" viewBox="0 0 24 24" fill="none">
        <circle cx="17" cy="17" r="3" stroke-width="2"/>
        <circle cx="7" cy="7" r="3" stroke-width="2"/>
        <path d="M18 6L6 18" stroke-width="2" stroke-linecap="round"/>
    </symbol>
    <symbol id="rarr" viewBox="-1 0 14 12">
        <path stroke-width="0" fill-rule="evenodd" clip-rule="evenodd"
            d="M6.19533 0.862147C6.32035 0.73716 6.48989 0.666946 6.66667 0.666946C6.84344 0.666946 7.01298 0.73716 7.138 0.862147L11.8047 5.52905C11.9296 5.65407 11.9999 5.82362 11.9999 6.0004C11.9999 6.17719 11.9296 6.34673 11.8047 6.47176L7.138 11.1387C7.01227 11.2601 6.84386 11.3273 6.66907 11.3258C6.49427 11.3243 6.32706 11.2541 6.20345 11.1305C6.07985 11.0069 6.00974 10.8397 6.00822 10.6649C6.0067 10.4901 6.07389 10.3217 6.19533 10.1959L9.724 6.6671H0.666667C0.489856 6.6671 0.320286 6.59686 0.195262 6.47183C0.0702379 6.3468 0 6.17722 0 6.0004C0 5.82358 0.0702379 5.654 0.195262 5.52897C0.320286 5.40394 0.489856 5.3337 0.666667 5.3337H9.724L6.19533 1.80486C6.07035 1.67984 6.00014 1.51029 6.00014 1.3335C6.00014 1.15672 6.07035 0.987172 6.19533 0.862147Z"/>
    </symbol>
    <symbol id="seek" viewBox="0 0 16 16">
        <path fill-rule="evenodd" clip-rule="evenodd" stroke-width="0"
            d="M11.206 12.617L14.296 15.703C14.686 16.099 15.316 16.099 15.706 15.703C16.098 15.308 16.098 14.669 15.706 14.273L12.626 11.193C13.496 10.025 14.013 8.577 14.013 7.007C14.013 3.137 10.876 0 7.007 0C3.137 0 0 3.137 0 7.007C0 10.877 3.137 14.014 7.007 14.014C8.582 14.014 10.036 13.494 11.206 12.617ZM7.006 12.012C4.243 12.012 2.002 9.772 2.002 7.007C2.002 4.243 4.242 2.002 7.007 2.002C9.771 2.002 12.011 4.242 12.011 7.007C12.011 9.771 9.771 12.012 7.008 12.012H7.006Z"/>
    </symbol>

</svg>
